# Created by Open3D 
# object name: piers
# number of vertices: 288
# number of triangles: 176
v 21 6.9 -1.4
vn -0 0 1
v 23 5.1 -1.4
vn -0 0 1
v 23 6.9 -1.4
vn -0 0 1
v 21 5.1 -1.4
vn 0 0 1
v 23 6.9 -1.9
vn 1 -0 0
v 23 11 -2.9
vn 1 -0 0
v 23 11 -1.9
vn 1 -0 0
v 23 5.1 -1.9
vn 1 0 0
v 23 6.9 -1.4
vn 1 0 0
v 23 5.1 -1.4
vn 1 0 0
v 23 6.9 -3.9
vn 1 0 0
v 23 5.1 -3.9
vn 1 0 0
v 23 5.1 -6.4
vn 1 0 0
v 23 6.9 -6.4
vn 1 0 0
v 23 1 -2.9
vn 1 0 0
v 23 1 -1.9
vn 1 0 0
v 21 6.9 -1.9
vn 0 1 0
v 21 6.9 -1.4
vn 0 1 0
v 23 6.9 -1.4
vn 0 1 0
v 23 6.9 -1.9
vn 0 1 0
v 21 6.9 -1.9
vn -1 0 0
v 21 11 -1.9
vn -1 0 0
v 21 11 -2.9
vn -1 0 0
v 21 5.1 -1.9
vn -1 0 0
v 21 5.1 -1.4
vn -1 0 0
v 21 6.9 -1.4
vn -1 0 0
v 21 6.9 -3.9
vn -1 0 0
v 21 5.1 -3.9
vn -1 0 0
v 21 5.1 -6.4
vn -1 0 0
v 21 6.9 -6.4
vn -1 0 0
v 21 1 -2.9
vn -1 0 0
v 21 1 -1.9
vn -1 0 0
v 21 5.1 -1.4
vn 0 -1 0
v 21 5.1 -1.9
vn 0 -1 0
v 23 5.1 -1.9
vn 0 -1 0
v 23 5.1 -1.4
vn 0 -1 0
v 21 11 -1.9
vn -0 0 1
v 23 6.9 -1.9
vn -0 0 1
v 23 11 -1.9
vn -0 0 1
v 21 6.9 -1.9
vn 0 0 1
v 21 5.1 -1.9
vn -0 5.41572e-17 1
v 23 1 -1.9
vn -0 5.41572e-17 1
v 23 5.1 -1.9
vn -0 5.41572e-17 1
v 21 1 -1.9
vn 0 5.41572e-17 1
v 21 11 -2.9
vn 0 1 0
v 23 11 -1.9
vn 0 1 0
v 23 11 -2.9
vn 0 1 0
v 21 11 -1.9
vn 0 1 0
v 21 1 -2.9
vn 0 -1 0
v 23 1 -2.9
vn 0 -1 0
v 23 1 -1.9
vn 0 -1 0
v 21 1 -1.9
vn 0 -1 0
v 21 5.1 -3.9
vn 0 -0.236956 -0.97152
v 23 1 -2.9
vn 0 -0.236956 -0.97152
v 21 1 -2.9
vn 0 -0.236956 -0.97152
v 23 5.1 -3.9
vn 0 -0.236956 -0.97152
v 21 5.1 -3.9
vn 0 -1 0
v 21 5.1 -6.4
vn 0 -1 0
v 23 5.1 -6.4
vn 0 -1 0
v 23 5.1 -3.9
vn 0 -1 0
v 21 5.1 -6.4
vn 0 0 -1
v 21 6.9 -6.4
vn 0 0 -1
v 23 6.9 -6.4
vn 0 0 -1
v 23 5.1 -6.4
vn 0 0 -1
v 21 6.9 -6.4
vn 0 1 0
v 21 6.9 -3.9
vn 0 1 0
v 23 6.9 -3.9
vn 0 1 0
v 23 6.9 -6.4
vn 0 1 0
v 21 6.9 -3.9
vn 0 0.236956 -0.97152
v 21 11 -2.9
vn 0 0.236956 -0.97152
v 23 11 -2.9
vn 0 0.236956 -0.97152
v 23 6.9 -3.9
vn 0 0.236956 -0.97152
v 21 -5.1 -1.4
vn -0 0 1
v 23 -6.9 -1.4
vn -0 0 1
v 23 -5.1 -1.4
vn -0 0 1
v 21 -6.9 -1.4
vn 0 0 1
v 23 -5.1 -1.9
vn 1 -0 0
v 23 -1 -2.9
vn 1 -0 0
v 23 -1 -1.9
vn 1 -0 0
v 23 -6.9 -1.9
vn 1 0 0
v 23 -5.1 -1.4
vn 1 0 0
v 23 -6.9 -1.4
vn 1 0 0
v 23 -5.1 -3.9
vn 1 0 0
v 23 -6.9 -3.9
vn 1 0 0
v 23 -6.9 -6.4
vn 1 0 0
v 23 -5.1 -6.4
vn 1 0 0
v 23 -11 -2.9
vn 1 0 0
v 23 -11 -1.9
vn 1 0 0
v 21 -5.1 -1.9
vn 0 1 0
v 21 -5.1 -1.4
vn 0 1 0
v 23 -5.1 -1.4
vn 0 1 0
v 23 -5.1 -1.9
vn 0 1 0
v 21 -5.1 -1.9
vn -1 0 0
v 21 -1 -1.9
vn -1 0 0
v 21 -1 -2.9
vn -1 0 0
v 21 -6.9 -1.9
vn -1 0 0
v 21 -6.9 -1.4
vn -1 0 0
v 21 -5.1 -1.4
vn -1 0 0
v 21 -5.1 -3.9
vn -1 0 0
v 21 -6.9 -3.9
vn -1 0 0
v 21 -6.9 -6.4
vn -1 0 0
v 21 -5.1 -6.4
vn -1 0 0
v 21 -11 -2.9
vn -1 0 0
v 21 -11 -1.9
vn -1 0 0
v 21 -6.9 -1.4
vn 0 -1 0
v 21 -6.9 -1.9
vn 0 -1 0
v 23 -6.9 -1.9
vn 0 -1 0
v 23 -6.9 -1.4
vn 0 -1 0
v 21 -1 -1.9
vn -0 0 1
v 23 -5.1 -1.9
vn -0 0 1
v 23 -1 -1.9
vn -0 0 1
v 21 -5.1 -1.9
vn 0 0 1
v 21 -6.9 -1.9
vn -0 5.41572e-17 1
v 23 -11 -1.9
vn -0 5.41572e-17 1
v 23 -6.9 -1.9
vn -0 5.41572e-17 1
v 21 -11 -1.9
vn 0 5.41572e-17 1
v 21 -1 -2.9
vn 0 1 0
v 23 -1 -1.9
vn 0 1 0
v 23 -1 -2.9
vn 0 1 0
v 21 -1 -1.9
vn 0 1 0
v 21 -11 -2.9
vn 0 -1 0
v 23 -11 -2.9
vn 0 -1 0
v 23 -11 -1.9
vn 0 -1 0
v 21 -11 -1.9
vn 0 -1 0
v 21 -6.9 -3.9
vn 0 -0.236956 -0.97152
v 23 -11 -2.9
vn 0 -0.236956 -0.97152
v 21 -11 -2.9
vn 0 -0.236956 -0.97152
v 23 -6.9 -3.9
vn 0 -0.236956 -0.97152
v 21 -6.9 -3.9
vn 0 -1 0
v 21 -6.9 -6.4
vn 0 -1 0
v 23 -6.9 -6.4
vn 0 -1 0
v 23 -6.9 -3.9
vn 0 -1 0
v 21 -6.9 -6.4
vn 0 0 -1
v 21 -5.1 -6.4
vn 0 0 -1
v 23 -5.1 -6.4
vn 0 0 -1
v 23 -6.9 -6.4
vn 0 0 -1
v 21 -5.1 -6.4
vn 0 1 0
v 21 -5.1 -3.9
vn 0 1 0
v 23 -5.1 -3.9
vn 0 1 0
v 23 -5.1 -6.4
vn 0 1 0
v 21 -5.1 -3.9
vn 0 0.236956 -0.97152
v 21 -1 -2.9
vn 0 0.236956 -0.97152
v 23 -1 -2.9
vn 0 0.236956 -0.97152
v 23 -5.1 -3.9
vn 0 0.236956 -0.97152
v -22.8 6.9 -1.4
vn -0 0 1
v -20.8 5.1 -1.4
vn -0 0 1
v -20.8 6.9 -1.4
vn -0 0 1
v -22.8 5.1 -1.4
vn 0 0 1
v -20.8 6.9 -1.9
vn 1 -0 0
v -20.8 11 -2.9
vn 1 -0 0
v -20.8 11 -1.9
vn 1 -0 0
v -20.8 5.1 -1.9
vn 1 0 0
v -20.8 6.9 -1.4
vn 1 0 0
v -20.8 5.1 -1.4
vn 1 0 0
v -20.8 6.9 -3.9
vn 1 0 0
v -20.8 5.1 -3.9
vn 1 0 0
v -20.8 5.1 -6.4
vn 1 0 0
v -20.8 6.9 -6.4
vn 1 0 0
v -20.8 1 -2.9
vn 1 0 0
v -20.8 1 -1.9
vn 1 0 0
v -22.8 6.9 -1.9
vn 0 1 0
v -22.8 6.9 -1.4
vn 0 1 0
v -20.8 6.9 -1.4
vn 0 1 0
v -20.8 6.9 -1.9
vn 0 1 0
v -22.8 6.9 -1.9
vn -1 0 0
v -22.8 11 -1.9
vn -1 0 0
v -22.8 11 -2.9
vn -1 0 0
v -22.8 5.1 -1.9
vn -1 0 0
v -22.8 5.1 -1.4
vn -1 0 0
v -22.8 6.9 -1.4
vn -1 0 0
v -22.8 6.9 -3.9
vn -1 0 0
v -22.8 5.1 -3.9
vn -1 0 0
v -22.8 5.1 -6.4
vn -1 0 0
v -22.8 6.9 -6.4
vn -1 0 0
v -22.8 1 -2.9
vn -1 0 0
v -22.8 1 -1.9
vn -1 0 0
v -22.8 5.1 -1.4
vn 0 -1 0
v -22.8 5.1 -1.9
vn 0 -1 0
v -20.8 5.1 -1.9
vn 0 -1 0
v -20.8 5.1 -1.4
vn 0 -1 0
v -22.8 11 -1.9
vn -0 0 1
v -20.8 6.9 -1.9
vn -0 0 1
v -20.8 11 -1.9
vn -0 0 1
v -22.8 6.9 -1.9
vn 0 0 1
v -22.8 5.1 -1.9
vn -0 5.41572e-17 1
v -20.8 1 -1.9
vn -0 5.41572e-17 1
v -20.8 5.1 -1.9
vn -0 5.41572e-17 1
v -22.8 1 -1.9
vn 0 5.41572e-17 1
v -22.8 11 -2.9
vn 0 1 0
v -20.8 11 -1.9
vn 0 1 0
v -20.8 11 -2.9
vn 0 1 0
v -22.8 11 -1.9
vn 0 1 0
v -22.8 1 -2.9
vn 0 -1 0
v -20.8 1 -2.9
vn 0 -1 0
v -20.8 1 -1.9
vn 0 -1 0
v -22.8 1 -1.9
vn 0 -1 0
v -22.8 5.1 -3.9
vn 0 -0.236956 -0.97152
v -20.8 1 -2.9
vn 0 -0.236956 -0.97152
v -22.8 1 -2.9
vn 0 -0.236956 -0.97152
v -20.8 5.1 -3.9
vn 0 -0.236956 -0.97152
v -22.8 5.1 -3.9
vn 0 -1 0
v -22.8 5.1 -6.4
vn 0 -1 0
v -20.8 5.1 -6.4
vn 0 -1 0
v -20.8 5.1 -3.9
vn 0 -1 0
v -22.8 5.1 -6.4
vn 0 0 -1
v -22.8 6.9 -6.4
vn 0 0 -1
v -20.8 6.9 -6.4
vn 0 0 -1
v -20.8 5.1 -6.4
vn 0 0 -1
v -22.8 6.9 -6.4
vn 0 1 0
v -22.8 6.9 -3.9
vn 0 1 0
v -20.8 6.9 -3.9
vn 0 1 0
v -20.8 6.9 -6.4
vn 0 1 0
v -22.8 6.9 -3.9
vn 0 0.236956 -0.97152
v -22.8 11 -2.9
vn 0 0.236956 -0.97152
v -20.8 11 -2.9
vn 0 0.236956 -0.97152
v -20.8 6.9 -3.9
vn 0 0.236956 -0.97152
v -22.8 -5.1 -1.4
vn -0 0 1
v -20.8 -6.9 -1.4
vn -0 0 1
v -20.8 -5.1 -1.4
vn -0 0 1
v -22.8 -6.9 -1.4
vn 0 0 1
v -20.8 -5.1 -1.9
vn 1 -0 0
v -20.8 -1 -2.9
vn 1 -0 0
v -20.8 -1 -1.9
vn 1 -0 0
v -20.8 -6.9 -1.9
vn 1 0 0
v -20.8 -5.1 -1.4
vn 1 0 0
v -20.8 -6.9 -1.4
vn 1 0 0
v -20.8 -5.1 -3.9
vn 1 0 0
v -20.8 -6.9 -3.9
vn 1 0 0
v -20.8 -6.9 -6.4
vn 1 0 0
v -20.8 -5.1 -6.4
vn 1 0 0
v -20.8 -11 -2.9
vn 1 0 0
v -20.8 -11 -1.9
vn 1 0 0
v -22.8 -5.1 -1.9
vn 0 1 0
v -22.8 -5.1 -1.4
vn 0 1 0
v -20.8 -5.1 -1.4
vn 0 1 0
v -20.8 -5.1 -1.9
vn 0 1 0
v -22.8 -5.1 -1.9
vn -1 0 0
v -22.8 -1 -1.9
vn -1 0 0
v -22.8 -1 -2.9
vn -1 0 0
v -22.8 -6.9 -1.9
vn -1 0 0
v -22.8 -6.9 -1.4
vn -1 0 0
v -22.8 -5.1 -1.4
vn -1 0 0
v -22.8 -5.1 -3.9
vn -1 0 0
v -22.8 -6.9 -3.9
vn -1 0 0
v -22.8 -6.9 -6.4
vn -1 0 0
v -22.8 -5.1 -6.4
vn -1 0 0
v -22.8 -11 -2.9
vn -1 0 0
v -22.8 -11 -1.9
vn -1 0 0
v -22.8 -6.9 -1.4
vn 0 -1 0
v -22.8 -6.9 -1.9
vn 0 -1 0
v -20.8 -6.9 -1.9
vn 0 -1 0
v -20.8 -6.9 -1.4
vn 0 -1 0
v -22.8 -1 -1.9
vn -0 0 1
v -20.8 -5.1 -1.9
vn -0 0 1
v -20.8 -1 -1.9
vn -0 0 1
v -22.8 -5.1 -1.9
vn 0 0 1
v -22.8 -6.9 -1.9
vn -0 5.41572e-17 1
v -20.8 -11 -1.9
vn -0 5.41572e-17 1
v -20.8 -6.9 -1.9
vn -0 5.41572e-17 1
v -22.8 -11 -1.9
vn 0 5.41572e-17 1
v -22.8 -1 -2.9
vn 0 1 0
v -20.8 -1 -1.9
vn 0 1 0
v -20.8 -1 -2.9
vn 0 1 0
v -22.8 -1 -1.9
vn 0 1 0
v -22.8 -11 -2.9
vn 0 -1 0
v -20.8 -11 -2.9
vn 0 -1 0
v -20.8 -11 -1.9
vn 0 -1 0
v -22.8 -11 -1.9
vn 0 -1 0
v -22.8 -6.9 -3.9
vn 0 -0.236956 -0.97152
v -20.8 -11 -2.9
vn 0 -0.236956 -0.97152
v -22.8 -11 -2.9
vn 0 -0.236956 -0.97152
v -20.8 -6.9 -3.9
vn 0 -0.236956 -0.97152
v -22.8 -6.9 -3.9
vn 0 -1 0
v -22.8 -6.9 -6.4
vn 0 -1 0
v -20.8 -6.9 -6.4
vn 0 -1 0
v -20.8 -6.9 -3.9
vn 0 -1 0
v -22.8 -6.9 -6.4
vn 0 0 -1
v -22.8 -5.1 -6.4
vn 0 0 -1
v -20.8 -5.1 -6.4
vn 0 0 -1
v -20.8 -6.9 -6.4
vn 0 0 -1
v -22.8 -5.1 -6.4
vn 0 1 0
v -22.8 -5.1 -3.9
vn 0 1 0
v -20.8 -5.1 -3.9
vn 0 1 0
v -20.8 -5.1 -6.4
vn 0 1 0
v -22.8 -5.1 -3.9
vn 0 0.236956 -0.97152
v -22.8 -1 -2.9
vn 0 0.236956 -0.97152
v -20.8 -1 -2.9
vn 0 0.236956 -0.97152
v -20.8 -5.1 -3.9
vn 0 0.236956 -0.97152
f 1//1 2//2 3//3
f 1//1 4//4 2//2
f 5//5 6//6 7//7
f 8//8 9//9 10//10
f 8//8 5//5 9//9
f 11//11 6//6 5//5
f 12//12 5//5 8//8
f 12//12 11//11 5//5
f 13//13 14//14 11//11
f 13//13 11//11 12//12
f 15//15 8//8 16//16
f 15//15 12//12 8//8
f 17//17 18//18 19//19
f 17//17 19//19 20//20
f 21//21 22//22 23//23
f 24//24 25//25 26//26
f 24//24 26//26 21//21
f 27//27 21//21 23//23
f 28//28 24//24 21//21
f 28//28 21//21 27//27
f 29//29 27//27 30//30
f 29//29 28//28 27//27
f 31//31 32//32 24//24
f 31//31 24//24 28//28
f 33//33 34//34 35//35
f 33//33 35//35 36//36
f 37//37 38//38 39//39
f 37//37 40//40 38//38
f 41//41 42//42 43//43
f 41//41 44//44 42//42
f 45//45 46//46 47//47
f 45//45 48//48 46//46
f 49//49 50//50 51//51
f 49//49 51//51 52//52
f 53//53 54//54 55//55
f 53//53 56//56 54//54
f 57//57 58//58 59//59
f 57//57 59//59 60//60
f 61//61 62//62 63//63
f 61//61 63//63 64//64
f 65//65 66//66 67//67
f 65//65 67//67 68//68
f 69//69 70//70 71//71
f 69//69 71//71 72//72
f 73//73 74//74 75//75
f 73//73 76//76 74//74
f 77//77 78//78 79//79
f 80//80 81//81 82//82
f 80//80 77//77 81//81
f 83//83 78//78 77//77
f 84//84 77//77 80//80
f 84//84 83//83 77//77
f 85//85 86//86 83//83
f 85//85 83//83 84//84
f 87//87 80//80 88//88
f 87//87 84//84 80//80
f 89//89 90//90 91//91
f 89//89 91//91 92//92
f 93//93 94//94 95//95
f 96//96 97//97 98//98
f 96//96 98//98 93//93
f 99//99 93//93 95//95
f 100//100 96//96 93//93
f 100//100 93//93 99//99
f 101//101 99//99 102//102
f 101//101 100//100 99//99
f 103//103 104//104 96//96
f 103//103 96//96 100//100
f 105//105 106//106 107//107
f 105//105 107//107 108//108
f 109//109 110//110 111//111
f 109//109 112//112 110//110
f 113//113 114//114 115//115
f 113//113 116//116 114//114
f 117//117 118//118 119//119
f 117//117 120//120 118//118
f 121//121 122//122 123//123
f 121//121 123//123 124//124
f 125//125 126//126 127//127
f 125//125 128//128 126//126
f 129//129 130//130 131//131
f 129//129 131//131 132//132
f 133//133 134//134 135//135
f 133//133 135//135 136//136
f 137//137 138//138 139//139
f 137//137 139//139 140//140
f 141//141 142//142 143//143
f 141//141 143//143 144//144
f 145//145 146//146 147//147
f 145//145 148//148 146//146
f 149//149 150//150 151//151
f 152//152 153//153 154//154
f 152//152 149//149 153//153
f 155//155 150//150 149//149
f 156//156 149//149 152//152
f 156//156 155//155 149//149
f 157//157 158//158 155//155
f 157//157 155//155 156//156
f 159//159 152//152 160//160
f 159//159 156//156 152//152
f 161//161 162//162 163//163
f 161//161 163//163 164//164
f 165//165 166//166 167//167
f 168//168 169//169 170//170
f 168//168 170//170 165//165
f 171//171 165//165 167//167
f 172//172 168//168 165//165
f 172//172 165//165 171//171
f 173//173 171//171 174//174
f 173//173 172//172 171//171
f 175//175 176//176 168//168
f 175//175 168//168 172//172
f 177//177 178//178 179//179
f 177//177 179//179 180//180
f 181//181 182//182 183//183
f 181//181 184//184 182//182
f 185//185 186//186 187//187
f 185//185 188//188 186//186
f 189//189 190//190 191//191
f 189//189 192//192 190//190
f 193//193 194//194 195//195
f 193//193 195//195 196//196
f 197//197 198//198 199//199
f 197//197 200//200 198//198
f 201//201 202//202 203//203
f 201//201 203//203 204//204
f 205//205 206//206 207//207
f 205//205 207//207 208//208
f 209//209 210//210 211//211
f 209//209 211//211 212//212
f 213//213 214//214 215//215
f 213//213 215//215 216//216
f 217//217 218//218 219//219
f 217//217 220//220 218//218
f 221//221 222//222 223//223
f 224//224 225//225 226//226
f 224//224 221//221 225//225
f 227//227 222//222 221//221
f 228//228 221//221 224//224
f 228//228 227//227 221//221
f 229//229 230//230 227//227
f 229//229 227//227 228//228
f 231//231 224//224 232//232
f 231//231 228//228 224//224
f 233//233 234//234 235//235
f 233//233 235//235 236//236
f 237//237 238//238 239//239
f 240//240 241//241 242//242
f 240//240 242//242 237//237
f 243//243 237//237 239//239
f 244//244 240//240 237//237
f 244//244 237//237 243//243
f 245//245 243//243 246//246
f 245//245 244//244 243//243
f 247//247 248//248 240//240
f 247//247 240//240 244//244
f 249//249 250//250 251//251
f 249//249 251//251 252//252
f 253//253 254//254 255//255
f 253//253 256//256 254//254
f 257//257 258//258 259//259
f 257//257 260//260 258//258
f 261//261 262//262 263//263
f 261//261 264//264 262//262
f 265//265 266//266 267//267
f 265//265 267//267 268//268
f 269//269 270//270 271//271
f 269//269 272//272 270//270
f 273//273 274//274 275//275
f 273//273 275//275 276//276
f 277//277 278//278 279//279
f 277//277 279//279 280//280
f 281//281 282//282 283//283
f 281//281 283//283 284//284
f 285//285 286//286 287//287
f 285//285 287//287 288//288
