# Created by Open3D 
# object name: deck
# number of vertices: 324
# number of triangles: 212
v -20 10.25 0.3
vn -1 0 0
v -20 10.25 0.1
vn -1 0 0
v -20 10.15 6.38378e-16
vn -1 0 0
v -20 8.25 -1
vn -1 0 0
v -20 8.65 -1.1
vn -1 0 0
v -20 8.35 -1.1
vn -1 0 0
v -20 8.75 -1
vn -1 0 0
v -20 8.85 -6.38378e-16
vn -1 0 0
v -20 8.25 -0.1
vn -1 0 0
v -20 8.75 -0.1
vn -1 0 0
v -20 8.15 -6.38378e-16
vn -1 0 0
v -20 4.95 -1.1
vn -1 0 0
v -20 5.35 -1
vn -1 0 0
v -20 5.25 -1.1
vn -1 0 0
v -20 4.85 -1
vn -1 0 0
v -20 4.85 -0.1
vn -1 0 0
v -20 5.35 -0.1
vn -1 0 0
v -20 5.45 -3.26128e-16
vn -1 0 0
v -20 4.75 -1.38778e-17
vn -1 0 0
v -20 1.45 -1
vn -1 0 0
v -20 1.85 -1.1
vn -1 0 0
v -20 1.55 -1.1
vn -1 0 0
v -20 1.95 -1
vn -1 0 0
v -20 1.45 -0.1
vn -1 0 0
v -20 1.95 -0.1
vn -1 0 0
v -20 2.05 -1.249e-16
vn -1 0 0
v -20 1.35 -4.16334e-17
vn -1 0 0
v -20 -1.95 -1
vn -1 0 0
v -20 -1.55 -1.1
vn -1 0 0
v -20 -1.85 -1.1
vn -1 0 0
v -20 -1.45 -1
vn -1 0 0
v -20 -1.95 -0.1
vn -1 0 -0
v -20 -1.45 -0.1
vn -1 0 0
v -20 -2.05 3.46945e-17
vn -1 0 0
v -20 -1.35 -4.16334e-17
vn -1 0 0
v -20 -5.35 -1
vn -1 0 0
v -20 -4.95 -1.1
vn -1 0 0
v -20 -5.25 -1.1
vn -1 0 0
v -20 -4.85 -1
vn -1 0 0
v -20 -5.35 -0.1
vn -1 0 0
v -20 -4.85 -0.1
vn -1 0 0
v -20 -5.45 -3.26128e-16
vn -1 0 0
v -20 -4.75 -1.38778e-17
vn -1 0 0
v -20 -8.75 -1
vn -1 0 0
v -20 -8.35 -1.1
vn -1 0 0
v -20 -8.65 -1.1
vn -1 0 0
v -20 -8.25 -1
vn -1 0 0
v -20 -8.75 -0.1
vn -1 0 0
v -20 -8.25 -0.1
vn -1 0 0
v -20 -8.15 -6.38378e-16
vn -1 0 0
v -20 -8.85 -6.38378e-16
vn -1 0 0
v -20 -10.25 0.3
vn -1 0 0
v -20 -10.15 6.38378e-16
vn -1 0 0
v -20 -10.25 0.1
vn -1 0 0
v 20 -10.25 0.1
vn -0 -1 -8.88178e-15
v -20 -10.25 0.3
vn -0 -1 -8.88178e-15
v -20 -10.25 0.1
vn -0 -1 -8.88178e-15
v 20 -10.25 0.3
vn -0 -1 -8.88178e-15
v 20 -10.15 6.38378e-16
vn -0 -0.707107 -0.707107
v -20 -10.25 0.1
vn -0 -0.707107 -0.707107
v -20 -10.15 6.38378e-16
vn -0 -0.707107 -0.707107
v 20 -10.25 0.1
vn 0 -0.707107 -0.707107
v 20 10.25 0.3
vn 0 0 1
v -20 10.25 0.3
vn 0 0 1
v -20 -10.25 0.3
vn 0 0 1
v 20 -10.25 0.3
vn 0 0 1
v 20 -8.85 -6.38378e-16
vn -0 -9.8212e-16 -1
v -20 -10.15 6.38378e-16
vn -0 -9.8212e-16 -1
v -20 -8.85 -6.38378e-16
vn -0 -9.8212e-16 -1
v 20 -10.15 6.38378e-16
vn 0 -9.8212e-16 -1
v 20 10.25 0.1
vn 0 1 -8.88178e-15
v -20 10.25 0.1
vn 0 1 -8.88178e-15
v -20 10.25 0.3
vn 0 1 -8.88178e-15
v 20 10.25 0.3
vn 0 1 -8.88178e-15
v 20 -8.85 -6.38378e-16
vn -0 -0.707107 -0.707107
v -20 -8.85 -6.38378e-16
vn -0 -0.707107 -0.707107
v -20 -8.75 -0.1
vn -0 -0.707107 -0.707107
v 20 -8.75 -0.1
vn -0 -0.707107 -0.707107
v 20 10.25 0.1
vn 0 0.707107 -0.707107
v -20 10.15 6.38378e-16
vn 0 0.707107 -0.707107
v -20 10.25 0.1
vn 0 0.707107 -0.707107
v 20 10.15 6.38378e-16
vn 0 0.707107 -0.707107
v -20 -8.75 -0.1
vn 0 -1 0
v -20 -8.75 -1
vn 0 -1 0
v 20 -8.75 -1
vn 0 -1 0
v 20 -8.75 -0.1
vn 0 -1 0
v 20 10.15 6.38378e-16
vn 0 9.8212e-16 -1
v -20 8.85 -6.38378e-16
vn 0 9.8212e-16 -1
v -20 10.15 6.38378e-16
vn 0 9.8212e-16 -1
v 20 8.85 -6.38378e-16
vn 0 9.8212e-16 -1
v 20 -8.75 -1
vn -0 -0.707107 -0.707107
v -20 -8.75 -1
vn -0 -0.707107 -0.707107
v -20 -8.65 -1.1
vn -0 -0.707107 -0.707107
v 20 -8.65 -1.1
vn -0 -0.707107 -0.707107
v 20 8.85 -6.38378e-16
vn 0 0.707107 -0.707107
v -20 8.75 -0.1
vn 0 0.707107 -0.707107
v -20 8.85 -6.38378e-16
vn 0 0.707107 -0.707107
v 20 8.75 -0.1
vn 0 0.707107 -0.707107
v -20 -8.65 -1.1
vn 0 0 -1
v -20 -8.35 -1.1
vn 0 0 -1
v 20 -8.35 -1.1
vn 0 0 -1
v 20 -8.65 -1.1
vn 0 0 -1
v -20 8.75 -1
vn 0 1 0
v -20 8.75 -0.1
vn 0 1 0
v 20 8.75 -0.1
vn 0 1 0
v 20 8.75 -1
vn 0 1 0
v 20 -8.25 -1
vn 0 0.707107 -0.707107
v -20 -8.35 -1.1
vn 0 0.707107 -0.707107
v -20 -8.25 -1
vn 0 0.707107 -0.707107
v 20 -8.35 -1.1
vn 0 0.707107 -0.707107
v 20 8.75 -1
vn 0 0.707107 -0.707107
v -20 8.65 -1.1
vn 0 0.707107 -0.707107
v -20 8.75 -1
vn 0 0.707107 -0.707107
v 20 8.65 -1.1
vn 0 0.707107 -0.707107
v -20 -8.25 -1
vn 0 1 0
v -20 -8.25 -0.1
vn 0 1 0
v 20 -8.25 -0.1
vn 0 1 0
v 20 -8.25 -1
vn 0 1 0
v -20 8.35 -1.1
vn 0 0 -1
v -20 8.65 -1.1
vn 0 0 -1
v 20 8.65 -1.1
vn 0 0 -1
v 20 8.35 -1.1
vn 0 0 -1
v 20 -8.15 -6.38378e-16
vn 0 0.707107 -0.707107
v -20 -8.25 -0.1
vn 0 0.707107 -0.707107
v -20 -8.15 -6.38378e-16
vn 0 0.707107 -0.707107
v 20 -8.25 -0.1
vn 0 0.707107 -0.707107
v 20 8.25 -1
vn -0 -0.707107 -0.707107
v -20 8.25 -1
vn -0 -0.707107 -0.707107
v -20 8.35 -1.1
vn -0 -0.707107 -0.707107
v 20 8.35 -1.1
vn -0 -0.707107 -0.707107
v 20 -5.45 -3.26128e-16
vn 0 1.15648e-16 -1
v -20 -8.15 -6.38378e-16
vn 0 1.15648e-16 -1
v -20 -5.45 -3.26128e-16
vn 0 1.15648e-16 -1
v 20 -8.15 -6.38378e-16
vn 0 1.15648e-16 -1
v -20 8.25 -0.1
vn 0 -1 0
v -20 8.25 -1
vn 0 -1 0
v 20 8.25 -1
vn 0 -1 0
v 20 8.25 -0.1
vn 0 -1 0
v 20 -5.45 -3.26128e-16
vn -0 -0.707107 -0.707107
v -20 -5.45 -3.26128e-16
vn -0 -0.707107 -0.707107
v -20 -5.35 -0.1
vn -0 -0.707107 -0.707107
v 20 -5.35 -0.1
vn -0 -0.707107 -0.707107
v 20 8.25 -0.1
vn -0 -0.707107 -0.707107
v -20 8.15 -6.38378e-16
vn -0 -0.707107 -0.707107
v -20 8.25 -0.1
vn -0 -0.707107 -0.707107
v 20 8.15 -6.38378e-16
vn 0 -0.707107 -0.707107
v -20 -5.35 -0.1
vn 0 -1 0
v -20 -5.35 -1
vn 0 -1 0
v 20 -5.35 -1
vn 0 -1 0
v 20 -5.35 -0.1
vn 0 -1 0
v 20 8.15 -6.38378e-16
vn -0 -1.15648e-16 -1
v -20 5.45 -3.26128e-16
vn -0 -1.15648e-16 -1
v -20 8.15 -6.38378e-16
vn -0 -1.15648e-16 -1
v 20 5.45 -3.26128e-16
vn 0 -1.15648e-16 -1
v 20 -5.35 -1
vn -0 -0.707107 -0.707107
v -20 -5.35 -1
vn -0 -0.707107 -0.707107
v -20 -5.25 -1.1
vn -0 -0.707107 -0.707107
v 20 -5.25 -1.1
vn -0 -0.707107 -0.707107
v 20 5.45 -3.26128e-16
vn 0 0.707107 -0.707107
v -20 5.35 -0.1
vn 0 0.707107 -0.707107
v -20 5.45 -3.26128e-16
vn 0 0.707107 -0.707107
v 20 5.35 -0.1
vn 0 0.707107 -0.707107
v -20 -5.25 -1.1
vn 0 -1.4803e-15 -1
v -20 -4.95 -1.1
vn 0 -1.4803e-15 -1
v 20 -4.95 -1.1
vn 0 -1.4803e-15 -1
v 20 -5.25 -1.1
vn 0 -1.4803e-15 -1
v -20 5.35 -1
vn 0 1 0
v -20 5.35 -0.1
vn 0 1 0
v 20 5.35 -0.1
vn 0 1 0
v 20 5.35 -1
vn 0 1 0
v 20 -4.85 -1
vn 0 0.707107 -0.707107
v -20 -4.95 -1.1
vn 0 0.707107 -0.707107
v -20 -4.85 -1
vn 0 0.707107 -0.707107
v 20 -4.95 -1.1
vn 0 0.707107 -0.707107
v 20 5.35 -1
vn 0 0.707107 -0.707107
v -20 5.25 -1.1
vn 0 0.707107 -0.707107
v -20 5.35 -1
vn 0 0.707107 -0.707107
v 20 5.25 -1.1
vn 0 0.707107 -0.707107
v -20 -4.85 -1
vn 0 1 9.86865e-16
v -20 -4.85 -0.1
vn 0 1 9.86865e-16
v 20 -4.85 -0.1
vn 0 1 9.86865e-16
v 20 -4.85 -1
vn -0 1 9.86865e-16
v -20 4.95 -1.1
vn 0 1.4803e-15 -1
v -20 5.25 -1.1
vn 0 1.4803e-15 -1
v 20 5.25 -1.1
vn 0 1.4803e-15 -1
v 20 4.95 -1.1
vn 0 1.4803e-15 -1
v 20 -4.75 -1.38778e-17
vn 0 0.707107 -0.707107
v -20 -4.85 -0.1
vn 0 0.707107 -0.707107
v -20 -4.75 -1.38778e-17
vn 0 0.707107 -0.707107
v 20 -4.85 -0.1
vn 0 0.707107 -0.707107
v 20 4.85 -1
vn -0 -0.707107 -0.707107
v -20 4.85 -1
vn -0 -0.707107 -0.707107
v -20 4.95 -1.1
vn -0 -0.707107 -0.707107
v 20 4.95 -1.1
vn -0 -0.707107 -0.707107
v 20 -2.05 -1.38778e-17
vn -1.21431e-18 1.79897e-17 -1
v -20 -4.75 -1.38778e-17
vn -1.21431e-18 1.79897e-17 -1
v -20 -2.05 3.46945e-17
vn -1.21431e-18 1.79897e-17 -1
v 20 -4.75 -1.38778e-17
vn 0 -0 -1
v -20 4.85 -0.1
vn 0 -1 9.86865e-16
v -20 4.85 -1
vn 0 -1 9.86865e-16
v 20 4.85 -1
vn 0 -1 9.86865e-16
v 20 4.85 -0.1
vn 0 -1 9.86865e-16
v 20 -2.05 -1.38778e-17
vn -8.58644e-19 -0.707107 -0.707107
v -20 -2.05 3.46945e-17
vn -8.58644e-19 -0.707107 -0.707107
v -20 -1.95 -0.1
vn -8.58644e-19 -0.707107 -0.707107
v 20 -1.95 -0.1
vn -9.81308e-19 -0.707107 -0.707107
v 20 4.75 -1.38778e-17
vn -0 -0.707107 -0.707107
v -20 4.75 -1.38778e-17
vn -0 -0.707107 -0.707107
v -20 4.85 -0.1
vn -0 -0.707107 -0.707107
v 20 4.85 -0.1
vn -0 -0.707107 -0.707107
v -20 -1.95 -0.1
vn 0 -1 4.93432e-16
v -20 -1.95 -1
vn 0 -1 4.93432e-16
v 20 -1.95 -1
vn 0 -1 4.93432e-16
v 20 -1.95 -0.1
vn 6.84775e-34 -1 4.93432e-16
v 20 4.75 -1.38778e-17
vn 0 4.11194e-17 -1
v -20 2.05 -1.249e-16
vn 0 4.11194e-17 -1
v -20 4.75 -1.38778e-17
vn 0 4.11194e-17 -1
v 20 2.05 -7.63278e-17
vn 1.21431e-18 2.31296e-17 -1
v 20 -1.95 -1
vn -0 -0.707107 -0.707107
v -20 -1.95 -1
vn -0 -0.707107 -0.707107
v -20 -1.85 -1.1
vn -0 -0.707107 -0.707107
v 20 -1.85 -1.1
vn -0 -0.707107 -0.707107
v 20 2.05 -7.63278e-17
vn 8.58644e-19 0.707107 -0.707107
v -20 1.95 -0.1
vn 8.58644e-19 0.707107 -0.707107
v -20 2.05 -1.249e-16
vn 8.58644e-19 0.707107 -0.707107
v 20 1.95 -0.1
vn 9.81308e-19 0.707107 -0.707107
v -20 -1.85 -1.1
vn 0 0 -1
v -20 -1.55 -1.1
vn 0 0 -1
v 20 -1.55 -1.1
vn 0 0 -1
v 20 -1.85 -1.1
vn 0 0 -1
v -20 1.95 -1
vn -6.84775e-34 1 2.46716e-16
v -20 1.95 -0.1
vn -6.84775e-34 1 2.46716e-16
v 20 1.95 -0.1
vn -6.84775e-34 1 2.46716e-16
v 20 1.95 -1
vn -0 1 2.46716e-16
v 20 -1.45 -1
vn 0 0.707107 -0.707107
v -20 -1.55 -1.1
vn 0 0.707107 -0.707107
v -20 -1.45 -1
vn 0 0.707107 -0.707107
v 20 -1.55 -1.1
vn 0 0.707107 -0.707107
v 20 1.95 -1
vn 0 0.707107 -0.707107
v -20 1.85 -1.1
vn 0 0.707107 -0.707107
v -20 1.95 -1
vn 0 0.707107 -0.707107
v 20 1.85 -1.1
vn 0 0.707107 -0.707107
v -20 -1.45 -1
vn 6.84775e-34 1 -2.46716e-16
v -20 -1.45 -0.1
vn 6.84775e-34 1 -2.46716e-16
v 20 -1.45 -0.1
vn 6.84775e-34 1 -2.46716e-16
v 20 -1.45 -1
vn 0 1 -2.46716e-16
v -20 1.85 -1.1
vn 0 0 -1
v 20 1.85 -1.1
vn 0 0 -1
v 20 1.55 -1.1
vn 0 0 -1
v -20 1.55 -1.1
vn 0 0 -1
v 20 -1.45 -0.1
vn 9.81308e-19 0.707107 -0.707107
v -20 -1.45 -0.1
vn 9.81308e-19 0.707107 -0.707107
v -20 -1.35 -4.16334e-17
vn 9.81308e-19 0.707107 -0.707107
v 20 -1.35 6.93889e-18
vn 6.13317e-19 0.707107 -0.707107
v 20 1.45 -1
vn -0 -0.707107 -0.707107
v -20 1.45 -1
vn -0 -0.707107 -0.707107
v -20 1.55 -1.1
vn -0 -0.707107 -0.707107
v 20 1.55 -1.1
vn -0 -0.707107 -0.707107
v 20 1.35 -9.02056e-17
vn -1.21431e-18 0 -1
v -20 -1.35 -4.16334e-17
vn -1.21431e-18 0 -1
v -20 1.35 -4.16334e-17
vn -1.21431e-18 0 -1
v 20 -1.35 6.93889e-18
vn 1.21431e-18 -3.59794e-17 -1
v -20 1.45 -0.1
vn 0 -1 0
v -20 1.45 -1
vn 0 -1 0
v 20 1.45 -1
vn 0 -1 0
v 20 1.45 -0.1
vn 0 -1 0
v 20 1.35 -9.02056e-17
vn -8.58644e-19 -0.707107 -0.707107
v -20 1.35 -4.16334e-17
vn -8.58644e-19 -0.707107 -0.707107
v -20 1.45 -0.1
vn -8.58644e-19 -0.707107 -0.707107
v 20 1.45 -0.1
vn -9.81308e-19 -0.707107 -0.707107
v 20 10.25 0.3
vn 1 0 0
v 20 10.15 6.38378e-16
vn 1 0 0
v 20 10.25 0.1
vn 1 0 0
v 20 8.25 -1
vn 1 0 0
v 20 8.35 -1.1
vn 1 0 0
v 20 8.65 -1.1
vn 1 0 0
v 20 8.75 -1
vn 1 -0 0
v 20 8.85 -6.38378e-16
vn 1 0 0
v 20 8.25 -0.1
vn 1 -0 0
v 20 8.75 -0.1
vn 1 -0 0
v 20 8.15 -6.38378e-16
vn 1 -0 0
v 20 4.95 -1.1
vn 1 0 0
v 20 5.25 -1.1
vn 1 0 0
v 20 5.35 -1
vn 1 0 0
v 20 4.85 -1
vn 1 0 0
v 20 4.85 -0.1
vn 1 -0 0
v 20 5.35 -0.1
vn 1 -0 0
v 20 5.45 -3.26128e-16
vn 1 0 0
v 20 4.75 -1.38778e-17
vn 1 0 0
v 20 1.45 -1
vn 1 0 0
v 20 1.55 -1.1
vn 1 0 0
v 20 1.85 -1.1
vn 1 0 0
v 20 1.95 -1
vn 1 -0 0
v 20 1.45 -0.1
vn 1 0 0
v 20 1.95 -0.1
vn 1 0 0
v 20 2.05 -7.63278e-17
vn 1 -0 0
v 20 1.35 -9.02056e-17
vn 1 -0 0
v 20 -1.95 -1
vn 1 0 0
v 20 -1.85 -1.1
vn 1 0 0
v 20 -1.55 -1.1
vn 1 0 0
v 20 -1.45 -1
vn 1 -0 0
v 20 -1.95 -0.1
vn 1 0 0
v 20 -1.45 -0.1
vn 1 0 0
v 20 -2.05 -1.38778e-17
vn 1 0 0
v 20 -1.35 6.93889e-18
vn 1 -0 0
v 20 -5.35 -1
vn 1 0 0
v 20 -5.25 -1.1
vn 1 0 0
v 20 -4.95 -1.1
vn 1 0 0
v 20 -4.85 -1
vn 1 -0 0
v 20 -5.35 -0.1
vn 1 -0 0
v 20 -4.85 -0.1
vn 1 -0 0
v 20 -5.45 -3.26128e-16
vn 1 -0 0
v 20 -4.75 -1.38778e-17
vn 1 -0 0
v 20 -8.75 -1
vn 1 0 0
v 20 -8.65 -1.1
vn 1 0 0
v 20 -8.35 -1.1
vn 1 0 0
v 20 -8.25 -1
vn 1 -0 0
v 20 -8.75 -0.1
vn 1 -0 0
v 20 -8.25 -0.1
vn 1 -0 0
v 20 -8.15 -6.38378e-16
vn 1 0 0
v 20 -8.85 -6.38378e-16
vn 1 -0 0
v 20 -10.25 0.3
vn 1 0 0
v 20 -10.25 0.1
vn 1 0 0
v 20 -10.15 6.38378e-16
vn 1 0 0
f 1//1 2//2 3//3
f 4//4 5//5 6//6
f 4//4 7//7 5//5
f 8//8 1//1 3//3
f 9//9 10//10 7//7
f 9//9 7//7 4//4
f 11//11 8//8 10//10
f 11//11 1//1 8//8
f 11//11 10//10 9//9
f 12//12 13//13 14//14
f 15//15 13//13 12//12
f 16//16 17//17 13//13
f 16//16 18//18 17//17
f 16//16 13//13 15//15
f 19//19 18//18 16//16
f 20//20 21//21 22//22
f 20//20 23//23 21//21
f 24//24 25//25 23//23
f 24//24 26//26 25//25
f 24//24 23//23 20//20
f 27//27 26//26 24//24
f 28//28 29//29 30//30
f 28//28 31//31 29//29
f 32//32 31//31 28//28
f 32//32 33//33 31//31
f 34//34 33//33 32//32
f 34//34 35//35 33//33
f 36//36 37//37 38//38
f 36//36 39//39 37//37
f 40//40 41//41 39//39
f 40//40 39//39 36//36
f 42//42 43//43 41//41
f 42//42 41//41 40//40
f 44//44 45//45 46//46
f 44//44 47//47 45//45
f 48//48 49//49 47//47
f 48//48 50//50 49//49
f 48//48 47//47 44//44
f 51//51 50//50 48//48
f 52//52 53//53 54//54
f 52//52 51//51 53//53
f 52//52 42//42 50//50
f 52//52 50//50 51//51
f 1//1 11//11 52//52
f 11//11 18//18 52//52
f 18//18 19//19 52//52
f 19//19 26//26 52//52
f 26//26 27//27 52//52
f 27//27 35//35 52//52
f 35//35 34//34 52//52
f 34//34 43//43 52//52
f 43//43 42//42 52//52
f 55//55 56//56 57//57
f 58//58 56//56 55//55
f 59//59 60//60 61//61
f 59//59 62//62 60//60
f 63//63 64//64 65//65
f 63//63 65//65 66//66
f 67//67 68//68 69//69
f 67//67 70//70 68//68
f 71//71 72//72 73//73
f 74//74 71//71 73//73
f 75//75 76//76 77//77
f 78//78 75//75 77//77
f 79//79 80//80 81//81
f 82//82 80//80 79//79
f 83//83 84//84 85//85
f 83//83 85//85 86//86
f 87//87 88//88 89//89
f 87//87 90//90 88//88
f 91//91 92//92 93//93
f 94//94 91//91 93//93
f 95//95 96//96 97//97
f 98//98 96//96 95//95
f 99//99 100//100 101//101
f 99//99 101//101 102//102
f 103//103 104//104 105//105
f 103//103 105//105 106//106
f 107//107 108//108 109//109
f 110//110 108//108 107//107
f 111//111 112//112 113//113
f 114//114 112//112 111//111
f 115//115 116//116 117//117
f 115//115 117//117 118//118
f 119//119 120//120 121//121
f 119//119 121//121 122//122
f 123//123 124//124 125//125
f 126//126 124//124 123//123
f 127//127 128//128 129//129
f 130//130 127//127 129//129
f 131//131 132//132 133//133
f 131//131 134//134 132//132
f 135//135 136//136 137//137
f 135//135 137//137 138//138
f 139//139 140//140 141//141
f 142//142 139//139 141//141
f 143//143 144//144 145//145
f 143//143 146//146 144//144
f 147//147 148//148 149//149
f 147//147 149//149 150//150
f 151//151 152//152 153//153
f 151//151 154//154 152//152
f 155//155 156//156 157//157
f 158//158 155//155 157//157
f 159//159 160//160 161//161
f 162//162 160//160 159//159
f 163//163 164//164 165//165
f 163//163 165//165 166//166
f 167//167 168//168 169//169
f 167//167 169//169 170//170
f 171//171 172//172 173//173
f 174//174 172//172 171//171
f 175//175 176//176 177//177
f 178//178 176//176 175//175
f 179//179 180//180 181//181
f 179//179 181//181 182//182
f 183//183 184//184 185//185
f 183//183 185//185 186//186
f 187//187 188//188 189//189
f 190//190 188//188 187//187
f 191//191 192//192 193//193
f 194//194 191//191 193//193
f 195//195 196//196 197//197
f 195//195 198//198 196//196
f 199//199 200//200 201//201
f 199//199 201//201 202//202
f 203//203 204//204 205//205
f 206//206 203//203 205//205
f 207//207 208//208 209//209
f 210//210 207//207 209//209
f 211//211 212//212 213//213
f 211//211 213//213 214//214
f 215//215 216//216 217//217
f 215//215 218//218 216//216
f 219//219 220//220 221//221
f 222//222 219//219 221//221
f 223//223 224//224 225//225
f 226//226 224//224 223//223
f 227//227 228//228 229//229
f 227//227 229//229 230//230
f 231//231 232//232 233//233
f 231//231 233//233 234//234
f 235//235 236//236 237//237
f 238//238 236//236 235//235
f 239//239 240//240 241//241
f 242//242 240//240 239//239
f 243//243 244//244 245//245
f 243//243 245//245 246//246
f 247//247 248//248 249//249
f 250//250 247//247 249//249
f 251//251 252//252 253//253
f 251//251 253//253 254//254
f 255//255 256//256 257//257
f 258//258 255//255 257//257
f 259//259 260//260 261//261
f 259//259 262//262 260//260
f 263//263 264//264 265//265
f 263//263 265//265 266//266
f 267//267 268//268 269//269
f 270//270 267//267 269//269
f 271//271 272//272 273//273
f 274//274 275//275 276//276
f 274//274 276//276 277//277
f 278//278 272//272 271//271
f 279//279 277//277 280//280
f 279//279 274//274 277//277
f 281//281 280//280 278//278
f 281//281 278//278 271//271
f 281//281 279//279 280//280
f 282//282 283//283 284//284
f 285//285 282//282 284//284
f 286//286 284//284 287//287
f 286//286 287//287 288//288
f 286//286 285//285 284//284
f 289//289 286//286 288//288
f 290//290 291//291 292//292
f 290//290 292//292 293//293
f 294//294 293//293 295//295
f 294//294 295//295 296//296
f 294//294 290//290 293//293
f 297//297 294//294 296//296
f 298//298 299//299 300//300
f 298//298 300//300 301//301
f 302//302 298//298 301//301
f 302//302 301//301 303//303
f 304//304 302//302 303//303
f 304//304 303//303 305//305
f 306//306 307//307 308//308
f 306//306 308//308 309//309
f 310//310 309//309 311//311
f 310//310 306//306 309//309
f 312//312 311//311 313//313
f 312//312 310//310 311//311
f 314//314 315//315 316//316
f 314//314 316//316 317//317
f 318//318 317//317 319//319
f 318//318 319//319 320//320
f 318//318 314//314 317//317
f 321//321 318//318 320//320
f 322//322 323//323 324//324
f 322//322 324//324 321//321
f 322//322 320//320 312//312
f 322//322 321//321 320//320
f 271//271 322//322 281//281
f 281//281 322//322 288//288
f 288//288 322//322 289//289
f 289//289 322//322 296//296
f 296//296 322//322 297//297
f 297//297 322//322 305//305
f 305//305 322//322 304//304
f 304//304 322//322 313//313
f 313//313 322//322 312//312
