# Created by Open3D 
# object name: piers
# number of vertices: 240
# number of triangles: 152
v -9.8 -12 -1.6
vn 0 -1 0
v -11 -12 -1.1
vn 0 -1 0
v -11 -12 -1.6
vn 0 -1 0
v -9.8 -12 -1.1
vn 0 -1 0
v -10.1 -9.3 -1.6
vn 0 -0 -1
v -9.8 -12 -1.6
vn 0 -0 -1
v -11 -12 -1.6
vn 0 -0 -1
v -10.7 -9.3 -1.6
vn -0 0 -1
v -10.1 -3.3 -1.6
vn 0 -0 -1
v -10.1 -8.7 -1.6
vn 0 -0 -1
v -10.7 -8.7 -1.6
vn 0 -0 -1
v -10.7 -3.3 -1.6
vn -0 0 -1
v -10.1 2.7 -1.6
vn 0 -0 -1
v -10.1 -2.7 -1.6
vn 0 -0 -1
v -10.7 -2.7 -1.6
vn 0 -0 -1
v -10.7 2.7 -1.6
vn -0 0 -1
v -10.1 8.7 -1.6
vn 0 -0 -1
v -10.1 3.3 -1.6
vn 0 -0 -1
v -10.7 3.3 -1.6
vn 0 -0 -1
v -10.7 8.7 -1.6
vn -0 0 -1
v -11 12 -1.6
vn 0 0 -1
v -10.7 9.3 -1.6
vn 0 0 -1
v -9.8 12 -1.6
vn 0 0 -1
v -10.1 9.3 -1.6
vn 0 0 -1
v -9.8 12 -1.1
vn 1 0 0
v -9.8 -12 -1.1
vn 1 0 0
v -9.8 -12 -1.6
vn 1 0 0
v -9.8 12 -1.6
vn 1 0 0
v -9.8 12 -1.1
vn 0 0 1
v -11 12 -1.1
vn 0 0 1
v -11 -12 -1.1
vn 0 0 1
v -9.8 -12 -1.1
vn 0 0 1
v -11 12 -1.1
vn -1 -0 0
v -11 -12 -1.6
vn -1 -0 0
v -11 -12 -1.1
vn -1 -0 0
v -11 12 -1.6
vn -1 0 -0
v -9.8 12 -1.6
vn 0 1 0
v -11 12 -1.6
vn 0 1 0
v -11 12 -1.1
vn 0 1 0
v -9.8 12 -1.1
vn 0 1 -0
v -10.1 -9.3 -1.6
vn -0 -1 0
v -10.7 -9.3 -1.6
vn -0 -1 0
v -10.7 -9.3 -6.6
vn -0 -1 0
v -10.1 -9.3 -6.6
vn 0 -1 -0
v -10.1 -8.7 -1.6
vn 1 0 0
v -10.1 -9.3 -1.6
vn 1 0 0
v -10.1 -9.3 -6.6
vn 1 0 0
v -10.1 -8.7 -6.6
vn 1 0 0
v -10.7 -8.7 -1.6
vn -0 1 0
v -10.1 -8.7 -1.6
vn -0 1 0
v -10.1 -8.7 -6.6
vn -0 1 0
v -10.7 -8.7 -6.6
vn 0 1 0
v -10.7 -9.3 -1.6
vn -1 0 0
v -10.7 -8.7 -1.6
vn -1 0 0
v -10.7 -8.7 -6.6
vn -1 0 0
v -10.7 -9.3 -6.6
vn -1 0 0
v -10.1 -3.3 -1.6
vn -0 -1 0
v -10.7 -3.3 -1.6
vn -0 -1 0
v -10.7 -3.3 -6.6
vn -0 -1 0
v -10.1 -3.3 -6.6
vn 0 -1 -0
v -10.1 -2.7 -1.6
vn 1 0 0
v -10.1 -3.3 -1.6
vn 1 0 0
v -10.1 -3.3 -6.6
vn 1 0 0
v -10.1 -2.7 -6.6
vn 1 0 0
v -10.7 -2.7 -1.6
vn -0 1 0
v -10.1 -2.7 -1.6
vn -0 1 0
v -10.1 -2.7 -6.6
vn -0 1 0
v -10.7 -2.7 -6.6
vn 0 1 0
v -10.7 -3.3 -1.6
vn -1 0 0
v -10.7 -2.7 -1.6
vn -1 0 0
v -10.7 -2.7 -6.6
vn -1 0 0
v -10.7 -3.3 -6.6
vn -1 0 0
v -10.1 2.7 -1.6
vn -0 -1 0
v -10.7 2.7 -1.6
vn -0 -1 0
v -10.7 2.7 -6.6
vn -0 -1 0
v -10.1 2.7 -6.6
vn 0 -1 -0
v -10.1 3.3 -1.6
vn 1 0 0
v -10.1 2.7 -1.6
vn 1 0 0
v -10.1 2.7 -6.6
vn 1 0 0
v -10.1 3.3 -6.6
vn 1 0 0
v -10.7 3.3 -1.6
vn -0 1 0
v -10.1 3.3 -1.6
vn -0 1 0
v -10.1 3.3 -6.6
vn -0 1 0
v -10.7 3.3 -6.6
vn 0 1 0
v -10.7 2.7 -1.6
vn -1 0 0
v -10.7 3.3 -1.6
vn -1 0 0
v -10.7 3.3 -6.6
vn -1 0 0
v -10.7 2.7 -6.6
vn -1 0 0
v -10.1 8.7 -1.6
vn -0 -1 0
v -10.7 8.7 -1.6
vn -0 -1 0
v -10.7 8.7 -6.6
vn -0 -1 0
v -10.1 8.7 -6.6
vn 0 -1 -0
v -10.1 9.3 -1.6
vn 1 0 0
v -10.1 8.7 -1.6
vn 1 0 0
v -10.1 8.7 -6.6
vn 1 0 0
v -10.1 9.3 -6.6
vn 1 0 0
v -10.7 9.3 -1.6
vn -0 1 0
v -10.1 9.3 -1.6
vn -0 1 0
v -10.1 9.3 -6.6
vn -0 1 0
v -10.7 9.3 -6.6
vn 0 1 0
v -10.7 8.7 -1.6
vn -1 0 0
v -10.7 9.3 -1.6
vn -1 0 0
v -10.7 9.3 -6.6
vn -1 0 0
v -10.7 8.7 -6.6
vn -1 0 0
v -10.1 -8.7 -6.6
vn 0 -0 -1
v -10.1 -9.3 -6.6
vn 0 -0 -1
v -10.7 -9.3 -6.6
vn 0 -0 -1
v -10.7 -8.7 -6.6
vn -0 0 -1
v -10.1 -2.7 -6.6
vn 0 -0 -1
v -10.1 -3.3 -6.6
vn 0 -0 -1
v -10.7 -3.3 -6.6
vn 0 -0 -1
v -10.7 -2.7 -6.6
vn -0 0 -1
v -10.1 3.3 -6.6
vn 0 -0 -1
v -10.1 2.7 -6.6
vn 0 -0 -1
v -10.7 2.7 -6.6
vn 0 -0 -1
v -10.7 3.3 -6.6
vn -0 0 -1
v -10.1 9.3 -6.6
vn 0 -0 -1
v -10.1 8.7 -6.6
vn 0 -0 -1
v -10.7 8.7 -6.6
vn 0 -0 -1
v -10.7 9.3 -6.6
vn -0 0 -1
v 11 -12 -1.6
vn 0 -1 0
v 9.8 -12 -1.1
vn 0 -1 0
v 9.8 -12 -1.6
vn 0 -1 0
v 11 -12 -1.1
vn 0 -1 0
v 10.7 -9.3 -1.6
vn 0 -0 -1
v 11 -12 -1.6
vn 0 -0 -1
v 9.8 -12 -1.6
vn 0 -0 -1
v 10.1 -9.3 -1.6
vn -0 0 -1
v 10.7 -3.3 -1.6
vn 0 -0 -1
v 10.7 -8.7 -1.6
vn 0 -0 -1
v 10.1 -8.7 -1.6
vn 0 -0 -1
v 10.1 -3.3 -1.6
vn -0 0 -1
v 10.7 2.7 -1.6
vn 0 -0 -1
v 10.7 -2.7 -1.6
vn 0 -0 -1
v 10.1 -2.7 -1.6
vn 0 -0 -1
v 10.1 2.7 -1.6
vn -0 0 -1
v 10.7 8.7 -1.6
vn 0 -0 -1
v 10.7 3.3 -1.6
vn 0 -0 -1
v 10.1 3.3 -1.6
vn 0 -0 -1
v 10.1 8.7 -1.6
vn -0 0 -1
v 9.8 12 -1.6
vn 0 0 -1
v 10.1 9.3 -1.6
vn 0 0 -1
v 11 12 -1.6
vn 0 0 -1
v 10.7 9.3 -1.6
vn 0 0 -1
v 11 12 -1.1
vn 1 0 0
v 11 -12 -1.1
vn 1 0 0
v 11 -12 -1.6
vn 1 0 0
v 11 12 -1.6
vn 1 0 0
v 11 12 -1.1
vn 0 0 1
v 9.8 12 -1.1
vn 0 0 1
v 9.8 -12 -1.1
vn 0 0 1
v 11 -12 -1.1
vn 0 0 1
v 9.8 12 -1.1
vn -1 -0 0
v 9.8 -12 -1.6
vn -1 -0 0
v 9.8 -12 -1.1
vn -1 -0 0
v 9.8 12 -1.6
vn -1 0 -0
v 11 12 -1.6
vn 0 1 0
v 9.8 12 -1.6
vn 0 1 0
v 9.8 12 -1.1
vn 0 1 0
v 11 12 -1.1
vn 0 1 -0
v 10.7 -9.3 -1.6
vn -0 -1 0
v 10.1 -9.3 -1.6
vn -0 -1 0
v 10.1 -9.3 -6.6
vn -0 -1 0
v 10.7 -9.3 -6.6
vn 0 -1 -0
v 10.7 -8.7 -1.6
vn 1 0 0
v 10.7 -9.3 -1.6
vn 1 0 0
v 10.7 -9.3 -6.6
vn 1 0 0
v 10.7 -8.7 -6.6
vn 1 0 0
v 10.1 -8.7 -1.6
vn -0 1 0
v 10.7 -8.7 -1.6
vn -0 1 0
v 10.7 -8.7 -6.6
vn -0 1 0
v 10.1 -8.7 -6.6
vn 0 1 0
v 10.1 -9.3 -1.6
vn -1 0 0
v 10.1 -8.7 -1.6
vn -1 0 0
v 10.1 -8.7 -6.6
vn -1 0 0
v 10.1 -9.3 -6.6
vn -1 0 0
v 10.7 -3.3 -1.6
vn -0 -1 0
v 10.1 -3.3 -1.6
vn -0 -1 0
v 10.1 -3.3 -6.6
vn -0 -1 0
v 10.7 -3.3 -6.6
vn 0 -1 -0
v 10.7 -2.7 -1.6
vn 1 0 0
v 10.7 -3.3 -1.6
vn 1 0 0
v 10.7 -3.3 -6.6
vn 1 0 0
v 10.7 -2.7 -6.6
vn 1 0 0
v 10.1 -2.7 -1.6
vn -0 1 0
v 10.7 -2.7 -1.6
vn -0 1 0
v 10.7 -2.7 -6.6
vn -0 1 0
v 10.1 -2.7 -6.6
vn 0 1 0
v 10.1 -3.3 -1.6
vn -1 0 0
v 10.1 -2.7 -1.6
vn -1 0 0
v 10.1 -2.7 -6.6
vn -1 0 0
v 10.1 -3.3 -6.6
vn -1 0 0
v 10.7 2.7 -1.6
vn -0 -1 0
v 10.1 2.7 -1.6
vn -0 -1 0
v 10.1 2.7 -6.6
vn -0 -1 0
v 10.7 2.7 -6.6
vn 0 -1 -0
v 10.7 3.3 -1.6
vn 1 0 0
v 10.7 2.7 -1.6
vn 1 0 0
v 10.7 2.7 -6.6
vn 1 0 0
v 10.7 3.3 -6.6
vn 1 0 0
v 10.1 3.3 -1.6
vn -0 1 0
v 10.7 3.3 -1.6
vn -0 1 0
v 10.7 3.3 -6.6
vn -0 1 0
v 10.1 3.3 -6.6
vn 0 1 0
v 10.1 2.7 -1.6
vn -1 0 0
v 10.1 3.3 -1.6
vn -1 0 0
v 10.1 3.3 -6.6
vn -1 0 0
v 10.1 2.7 -6.6
vn -1 0 0
v 10.7 8.7 -1.6
vn -0 -1 0
v 10.1 8.7 -1.6
vn -0 -1 0
v 10.1 8.7 -6.6
vn -0 -1 0
v 10.7 8.7 -6.6
vn 0 -1 -0
v 10.7 9.3 -1.6
vn 1 0 0
v 10.7 8.7 -1.6
vn 1 0 0
v 10.7 8.7 -6.6
vn 1 0 0
v 10.7 9.3 -6.6
vn 1 0 0
v 10.1 9.3 -1.6
vn -0 1 0
v 10.7 9.3 -1.6
vn -0 1 0
v 10.7 9.3 -6.6
vn -0 1 0
v 10.1 9.3 -6.6
vn 0 1 0
v 10.1 8.7 -1.6
vn -1 0 0
v 10.1 9.3 -1.6
vn -1 0 0
v 10.1 9.3 -6.6
vn -1 0 0
v 10.1 8.7 -6.6
vn -1 0 0
v 10.7 -8.7 -6.6
vn 0 -0 -1
v 10.7 -9.3 -6.6
vn 0 -0 -1
v 10.1 -9.3 -6.6
vn 0 -0 -1
v 10.1 -8.7 -6.6
vn -0 0 -1
v 10.7 -2.7 -6.6
vn 0 -0 -1
v 10.7 -3.3 -6.6
vn 0 -0 -1
v 10.1 -3.3 -6.6
vn 0 -0 -1
v 10.1 -2.7 -6.6
vn -0 0 -1
v 10.7 3.3 -6.6
vn 0 -0 -1
v 10.7 2.7 -6.6
vn 0 -0 -1
v 10.1 2.7 -6.6
vn 0 -0 -1
v 10.1 3.3 -6.6
vn -0 0 -1
v 10.7 9.3 -6.6
vn 0 -0 -1
v 10.7 8.7 -6.6
vn 0 -0 -1
v 10.1 8.7 -6.6
vn 0 -0 -1
v 10.1 9.3 -6.6
vn -0 0 -1
f 1//1 2//2 3//3
f 1//1 4//4 2//2
f 5//5 6//6 7//7
f 5//5 7//7 8//8
f 9//9 10//10 11//11
f 9//9 11//11 12//12
f 13//13 14//14 15//15
f 13//13 15//15 16//16
f 17//17 18//18 19//19
f 17//17 19//19 20//20
f 21//21 22//22 20//20
f 23//23 24//24 22//22
f 23//23 17//17 24//24
f 23//23 22//22 21//21
f 21//21 8//8 7//7
f 21//21 11//11 8//8
f 21//21 12//12 11//11
f 21//21 15//15 12//12
f 21//21 16//16 15//15
f 21//21 19//19 16//16
f 21//21 20//20 19//19
f 6//6 5//5 23//23
f 5//5 10//10 23//23
f 10//10 9//9 23//23
f 9//9 14//14 23//23
f 14//14 13//13 23//23
f 13//13 18//18 23//23
f 18//18 17//17 23//23
f 25//25 26//26 27//27
f 25//25 27//27 28//28
f 29//29 30//30 31//31
f 29//29 31//31 32//32
f 33//33 34//34 35//35
f 33//33 36//36 34//34
f 37//37 38//38 39//39
f 37//37 39//39 40//40
f 41//41 42//42 43//43
f 41//41 43//43 44//44
f 45//45 46//46 47//47
f 45//45 47//47 48//48
f 49//49 50//50 51//51
f 49//49 51//51 52//52
f 53//53 54//54 55//55
f 53//53 55//55 56//56
f 57//57 58//58 59//59
f 57//57 59//59 60//60
f 61//61 62//62 63//63
f 61//61 63//63 64//64
f 65//65 66//66 67//67
f 65//65 67//67 68//68
f 69//69 70//70 71//71
f 69//69 71//71 72//72
f 73//73 74//74 75//75
f 73//73 75//75 76//76
f 77//77 78//78 79//79
f 77//77 79//79 80//80
f 81//81 82//82 83//83
f 81//81 83//83 84//84
f 85//85 86//86 87//87
f 85//85 87//87 88//88
f 89//89 90//90 91//91
f 89//89 91//91 92//92
f 93//93 94//94 95//95
f 93//93 95//95 96//96
f 97//97 98//98 99//99
f 97//97 99//99 100//100
f 101//101 102//102 103//103
f 101//101 103//103 104//104
f 105//105 106//106 107//107
f 105//105 107//107 108//108
f 109//109 110//110 111//111
f 109//109 111//111 112//112
f 113//113 114//114 115//115
f 113//113 115//115 116//116
f 117//117 118//118 119//119
f 117//117 119//119 120//120
f 121//121 122//122 123//123
f 121//121 124//124 122//122
f 125//125 126//126 127//127
f 125//125 127//127 128//128
f 129//129 130//130 131//131
f 129//129 131//131 132//132
f 133//133 134//134 135//135
f 133//133 135//135 136//136
f 137//137 138//138 139//139
f 137//137 139//139 140//140
f 141//141 142//142 140//140
f 143//143 144//144 142//142
f 143//143 137//137 144//144
f 143//143 142//142 141//141
f 141//141 128//128 127//127
f 141//141 131//131 128//128
f 141//141 132//132 131//131
f 141//141 135//135 132//132
f 141//141 136//136 135//135
f 141//141 139//139 136//136
f 141//141 140//140 139//139
f 126//126 125//125 143//143
f 125//125 130//130 143//143
f 130//130 129//129 143//143
f 129//129 134//134 143//143
f 134//134 133//133 143//143
f 133//133 138//138 143//143
f 138//138 137//137 143//143
f 145//145 146//146 147//147
f 145//145 147//147 148//148
f 149//149 150//150 151//151
f 149//149 151//151 152//152
f 153//153 154//154 155//155
f 153//153 156//156 154//154
f 157//157 158//158 159//159
f 157//157 159//159 160//160
f 161//161 162//162 163//163
f 161//161 163//163 164//164
f 165//165 166//166 167//167
f 165//165 167//167 168//168
f 169//169 170//170 171//171
f 169//169 171//171 172//172
f 173//173 174//174 175//175
f 173//173 175//175 176//176
f 177//177 178//178 179//179
f 177//177 179//179 180//180
f 181//181 182//182 183//183
f 181//181 183//183 184//184
f 185//185 186//186 187//187
f 185//185 187//187 188//188
f 189//189 190//190 191//191
f 189//189 191//191 192//192
f 193//193 194//194 195//195
f 193//193 195//195 196//196
f 197//197 198//198 199//199
f 197//197 199//199 200//200
f 201//201 202//202 203//203
f 201//201 203//203 204//204
f 205//205 206//206 207//207
f 205//205 207//207 208//208
f 209//209 210//210 211//211
f 209//209 211//211 212//212
f 213//213 214//214 215//215
f 213//213 215//215 216//216
f 217//217 218//218 219//219
f 217//217 219//219 220//220
f 221//221 222//222 223//223
f 221//221 223//223 224//224
f 225//225 226//226 227//227
f 225//225 227//227 228//228
f 229//229 230//230 231//231
f 229//229 231//231 232//232
f 233//233 234//234 235//235
f 233//233 235//235 236//236
f 237//237 238//238 239//239
f 237//237 239//239 240//240
