# Created by Open3D 
# object name: deck
# number of vertices: 420
# number of triangles: 276
v -17.5 13.75 0.3
vn -1 0 0
v -17.5 13.75 0.1
vn -1 0 0
v -17.5 13.65 1.38778e-17
vn -1 0 0
v -17.5 11.65 -0.9
vn -1 0 0
v -17.5 12.05 -1
vn -1 0 0
v -17.5 11.75 -1
vn -1 0 0
v -17.5 12.15 -0.9
vn -1 0 0
v -17.5 12.25 -1.38778e-17
vn -1 0 0
v -17.5 12.15 -0.1
vn -1 0 -0
v -17.5 11.65 -0.1
vn -1 0 0
v -17.5 11.55 -1.38778e-17
vn -1 0 0
v -17.5 8.35 -1
vn -1 0 0
v -17.5 8.75 -0.9
vn -1 0 0
v -17.5 8.65 -1
vn -1 0 0
v -17.5 8.25 -0.9
vn -1 0 0
v -17.5 8.75 -0.1
vn -1 0 0
v -17.5 8.25 -0.1
vn -1 0 -0
v -17.5 8.15 -6.38378e-16
vn -1 0 0
v -17.5 8.85 -6.38378e-16
vn -1 0 0
v -17.5 4.85 -0.9
vn -1 0 0
v -17.5 5.25 -1
vn -1 0 0
v -17.5 4.95 -1
vn -1 0 0
v -17.5 5.35 -0.9
vn -1 0 0
v -17.5 4.85 -0.1
vn -1 0 -0
v -17.5 5.35 -0.1
vn -1 0 0
v -17.5 4.75 -3.26128e-16
vn -1 0 0
v -17.5 5.45 -1.38778e-17
vn -1 0 0
v -17.5 1.45 -0.9
vn -1 0 0
v -17.5 1.85 -1
vn -1 0 0
v -17.5 1.55 -1
vn -1 0 0
v -17.5 1.95 -0.9
vn -1 0 0
v -17.5 1.45 -0.1
vn -1 0 0
v -17.5 1.95 -0.1
vn -1 0 0
v -17.5 1.35 -4.16334e-17
vn -1 0 0
v -17.5 2.05 -1.249e-16
vn -1 0 0
v -17.5 -1.85 -1
vn -1 0 0
v -17.5 -1.45 -0.9
vn -1 0 0
v -17.5 -1.55 -1
vn -1 0 0
v -17.5 -1.95 -0.9
vn -1 0 0
v -17.5 -1.95 -0.1
vn -1 0 0
v -17.5 -1.45 -0.1
vn -1 0 0
v -17.5 -2.05 3.46945e-17
vn -1 0 0
v -17.5 -1.35 3.46945e-17
vn -1 0 0
v -17.5 -5.25 -1
vn -1 0 0
v -17.5 -4.85 -0.9
vn -1 0 0
v -17.5 -4.95 -1
vn -1 0 0
v -17.5 -5.35 -0.9
vn -1 0 0
v -17.5 -5.35 -0.1
vn -1 0 0
v -17.5 -4.85 -0.1
vn -1 0 0
v -17.5 -5.45 -1.38778e-17
vn -1 0 0
v -17.5 -4.75 -1.38778e-17
vn -1 0 0
v -17.5 -8.65 -1
vn -1 0 0
v -17.5 -8.25 -0.9
vn -1 0 0
v -17.5 -8.35 -1
vn -1 0 0
v -17.5 -8.75 -0.9
vn -1 0 0
v -17.5 -8.75 -0.1
vn -1 0 0
v -17.5 -8.25 -0.1
vn -1 0 0
v -17.5 -8.15 -6.38378e-16
vn -1 0 0
v -17.5 -8.85 -6.38378e-16
vn -1 0 0
v -17.5 -12.15 -0.9
vn -1 0 0
v -17.5 -11.75 -1
vn -1 0 0
v -17.5 -12.05 -1
vn -1 0 0
v -17.5 -11.65 -0.9
vn -1 0 0
v -17.5 -11.65 -0.1
vn -1 0 -0
v -17.5 -12.15 -0.1
vn -1 0 0
v -17.5 -12.25 1.24206e-15
vn -1 0 0
v -17.5 -11.55 -1.38778e-17
vn -1 0 0
v -17.5 -13.75 0.3
vn -1 0 0
v -17.5 -13.65 1.38778e-17
vn -1 0 0
v -17.5 -13.75 0.1
vn -1 0 0
v 17.5 -13.75 0.1
vn -0 -1 -8.88178e-15
v -17.5 -13.75 0.3
vn -0 -1 -8.88178e-15
v -17.5 -13.75 0.1
vn -0 -1 -8.88178e-15
v 17.5 -13.75 0.3
vn -0 -1 -8.88178e-15
v 17.5 -13.65 1.38778e-17
vn -0 -0.707107 -0.707107
v -17.5 -13.75 0.1
vn -0 -0.707107 -0.707107
v -17.5 -13.65 1.38778e-17
vn -0 -0.707107 -0.707107
v 17.5 -13.75 0.1
vn 0 -0.707107 -0.707107
v 17.5 13.75 0.3
vn 0 0 1
v -17.5 13.75 0.3
vn 0 0 1
v -17.5 -13.75 0.3
vn 0 0 1
v 17.5 -13.75 0.3
vn 0 0 1
v 17.5 -12.25 1.24206e-15
vn 0 8.77274e-16 -1
v -17.5 -13.65 1.38778e-17
vn 0 8.77274e-16 -1
v -17.5 -12.25 1.24206e-15
vn 0 8.77274e-16 -1
v 17.5 -13.65 1.38778e-17
vn 0 8.77274e-16 -1
v 17.5 13.75 0.1
vn 0 1 -8.88178e-15
v -17.5 13.75 0.1
vn 0 1 -8.88178e-15
v -17.5 13.75 0.3
vn 0 1 -8.88178e-15
v 17.5 13.75 0.3
vn 0 1 -8.88178e-15
v 17.5 -12.15 -0.1
vn -0 -0.707107 -0.707107
v -17.5 -12.25 1.24206e-15
vn -0 -0.707107 -0.707107
v -17.5 -12.15 -0.1
vn -0 -0.707107 -0.707107
v 17.5 -12.25 1.24206e-15
vn 0 -0.707107 -0.707107
v 17.5 13.65 1.38778e-17
vn 0 0.707107 -0.707107
v -17.5 13.65 1.38778e-17
vn 0 0.707107 -0.707107
v -17.5 13.75 0.1
vn 0 0.707107 -0.707107
v 17.5 13.75 0.1
vn 0 0.707107 -0.707107
v -17.5 -12.15 -0.9
vn 0 -1 0
v 17.5 -12.15 -0.9
vn 0 -1 0
v 17.5 -12.15 -0.1
vn 0 -1 0
v -17.5 -12.15 -0.1
vn 0 -1 0
v 17.5 13.65 1.38778e-17
vn 0 1.98254e-17 -1
v -17.5 12.25 -1.38778e-17
vn 0 1.98254e-17 -1
v -17.5 13.65 1.38778e-17
vn 0 1.98254e-17 -1
v 17.5 12.25 -1.38778e-17
vn 0 1.98254e-17 -1
v 17.5 -12.05 -1
vn -0 -0.707107 -0.707107
v -17.5 -12.15 -0.9
vn -0 -0.707107 -0.707107
v -17.5 -12.05 -1
vn -0 -0.707107 -0.707107
v 17.5 -12.15 -0.9
vn 0 -0.707107 -0.707107
v 17.5 12.15 -0.1
vn 0 0.707107 -0.707107
v -17.5 12.15 -0.1
vn 0 0.707107 -0.707107
v -17.5 12.25 -1.38778e-17
vn 0 0.707107 -0.707107
v 17.5 12.25 -1.38778e-17
vn 0 0.707107 -0.707107
v -17.5 -12.05 -1
vn 0 0 -1
v -17.5 -11.75 -1
vn 0 0 -1
v 17.5 -11.75 -1
vn 0 0 -1
v 17.5 -12.05 -1
vn 0 0 -1
v -17.5 12.15 -0.1
vn -0 1 0
v 17.5 12.15 -0.1
vn -0 1 0
v 17.5 12.15 -0.9
vn -0 1 0
v -17.5 12.15 -0.9
vn 0 1 0
v 17.5 -11.75 -1
vn 0 0.707107 -0.707107
v -17.5 -11.75 -1
vn 0 0.707107 -0.707107
v -17.5 -11.65 -0.9
vn 0 0.707107 -0.707107
v 17.5 -11.65 -0.9
vn 0 0.707107 -0.707107
v 17.5 12.05 -1
vn 0 0.707107 -0.707107
v -17.5 12.05 -1
vn 0 0.707107 -0.707107
v -17.5 12.15 -0.9
vn 0 0.707107 -0.707107
v 17.5 12.15 -0.9
vn 0 0.707107 -0.707107
v -17.5 -11.65 -0.1
vn -0 1 0
v 17.5 -11.65 -0.1
vn -0 1 0
v 17.5 -11.65 -0.9
vn -0 1 0
v -17.5 -11.65 -0.9
vn 0 1 0
v -17.5 11.75 -1
vn 0 0 -1
v -17.5 12.05 -1
vn 0 0 -1
v 17.5 12.05 -1
vn 0 0 -1
v 17.5 11.75 -1
vn 0 0 -1
v 17.5 -11.65 -0.1
vn 0 0.707107 -0.707107
v -17.5 -11.65 -0.1
vn 0 0.707107 -0.707107
v -17.5 -11.55 -1.38778e-17
vn 0 0.707107 -0.707107
v 17.5 -11.55 -1.38778e-17
vn 0 0.707107 -0.707107
v 17.5 11.75 -1
vn -0 -0.707107 -0.707107
v -17.5 11.65 -0.9
vn -0 -0.707107 -0.707107
v -17.5 11.75 -1
vn -0 -0.707107 -0.707107
v 17.5 11.65 -0.9
vn 0 -0.707107 -0.707107
v 17.5 -11.55 -1.38778e-17
vn -0 -2.31296e-16 -1
v -17.5 -11.55 -1.38778e-17
vn -0 -2.31296e-16 -1
v -17.5 -8.85 -6.38378e-16
vn -0 -2.31296e-16 -1
v 17.5 -8.85 -6.38378e-16
vn -0 -2.31296e-16 -1
v -17.5 11.65 -0.9
vn 0 -1 -4.44089e-15
v 17.5 11.65 -0.9
vn 0 -1 -4.44089e-15
v 17.5 11.65 -0.1
vn 0 -1 -4.44089e-15
v -17.5 11.65 -0.1
vn 0 -1 -4.44089e-15
v 17.5 -8.75 -0.1
vn -0 -0.707107 -0.707107
v -17.5 -8.85 -6.38378e-16
vn -0 -0.707107 -0.707107
v -17.5 -8.75 -0.1
vn -0 -0.707107 -0.707107
v 17.5 -8.85 -6.38378e-16
vn 0 -0.707107 -0.707107
v 17.5 11.65 -0.1
vn -0 -0.707107 -0.707107
v -17.5 11.55 -1.38778e-17
vn -0 -0.707107 -0.707107
v -17.5 11.65 -0.1
vn -0 -0.707107 -0.707107
v 17.5 11.55 -1.38778e-17
vn 0 -0.707107 -0.707107
v -17.5 -8.75 -0.9
vn 0 -1 -2.22045e-15
v 17.5 -8.75 -0.9
vn 0 -1 -2.22045e-15
v 17.5 -8.75 -0.1
vn 0 -1 -2.22045e-15
v -17.5 -8.75 -0.1
vn 0 -1 -2.22045e-15
v 17.5 11.55 -1.38778e-17
vn 0 2.31296e-16 -1
v -17.5 8.85 -6.38378e-16
vn 0 2.31296e-16 -1
v -17.5 11.55 -1.38778e-17
vn 0 2.31296e-16 -1
v 17.5 8.85 -6.38378e-16
vn 0 2.31296e-16 -1
v 17.5 -8.65 -1
vn -0 -0.707107 -0.707107
v -17.5 -8.75 -0.9
vn -0 -0.707107 -0.707107
v -17.5 -8.65 -1
vn -0 -0.707107 -0.707107
v 17.5 -8.75 -0.9
vn 0 -0.707107 -0.707107
v 17.5 8.75 -0.1
vn 0 0.707107 -0.707107
v -17.5 8.75 -0.1
vn 0 0.707107 -0.707107
v -17.5 8.85 -6.38378e-16
vn 0 0.707107 -0.707107
v 17.5 8.85 -6.38378e-16
vn 0 0.707107 -0.707107
v -17.5 -8.65 -1
vn 0 1.85037e-15 -1
v -17.5 -8.35 -1
vn 0 1.85037e-15 -1
v 17.5 -8.35 -1
vn 0 1.85037e-15 -1
v 17.5 -8.65 -1
vn 0 1.85037e-15 -1
v -17.5 8.75 -0.1
vn 0 1 -2.22045e-15
v 17.5 8.75 -0.1
vn 0 1 -2.22045e-15
v 17.5 8.75 -0.9
vn 0 1 -2.22045e-15
v -17.5 8.75 -0.9
vn 0 1 -2.22045e-15
v 17.5 -8.35 -1
vn 0 0.707107 -0.707107
v -17.5 -8.35 -1
vn 0 0.707107 -0.707107
v -17.5 -8.25 -0.9
vn 0 0.707107 -0.707107
v 17.5 -8.25 -0.9
vn 0 0.707107 -0.707107
v 17.5 8.65 -1
vn 0 0.707107 -0.707107
v -17.5 8.65 -1
vn 0 0.707107 -0.707107
v -17.5 8.75 -0.9
vn 0 0.707107 -0.707107
v 17.5 8.75 -0.9
vn 0 0.707107 -0.707107
v -17.5 -8.25 -0.1
vn -0 1 0
v 17.5 -8.25 -0.1
vn -0 1 0
v 17.5 -8.25 -0.9
vn -0 1 0
v -17.5 -8.25 -0.9
vn 0 1 0
v -17.5 8.35 -1
vn 0 -2.59052e-15 -1
v -17.5 8.65 -1
vn 0 -2.59052e-15 -1
v 17.5 8.65 -1
vn 0 -2.59052e-15 -1
v 17.5 8.35 -1
vn 0 -2.59052e-15 -1
v 17.5 -8.25 -0.1
vn 0 0.707107 -0.707107
v -17.5 -8.25 -0.1
vn 0 0.707107 -0.707107
v -17.5 -8.15 -6.38378e-16
vn 0 0.707107 -0.707107
v 17.5 -8.15 -6.38378e-16
vn 0 0.707107 -0.707107
v 17.5 8.35 -1
vn -0 -0.707107 -0.707107
v -17.5 8.25 -0.9
vn -0 -0.707107 -0.707107
v -17.5 8.35 -1
vn -0 -0.707107 -0.707107
v 17.5 8.25 -0.9
vn 0 -0.707107 -0.707107
v 17.5 -8.15 -6.38378e-16
vn 0 2.31296e-16 -1
v -17.5 -8.15 -6.38378e-16
vn 0 2.31296e-16 -1
v -17.5 -5.45 -1.38778e-17
vn 0 2.31296e-16 -1
v 17.5 -5.45 -1.38778e-17
vn 0 2.31296e-16 -1
v -17.5 8.25 -0.9
vn 0 -1 2.22045e-15
v 17.5 8.25 -0.9
vn 0 -1 2.22045e-15
v 17.5 8.25 -0.1
vn 0 -1 2.22045e-15
v -17.5 8.25 -0.1
vn 0 -1 2.22045e-15
v 17.5 -5.35 -0.1
vn -0 -0.707107 -0.707107
v -17.5 -5.45 -1.38778e-17
vn -0 -0.707107 -0.707107
v -17.5 -5.35 -0.1
vn -0 -0.707107 -0.707107
v 17.5 -5.45 -1.38778e-17
vn 0 -0.707107 -0.707107
v 17.5 8.25 -0.1
vn -0 -0.707107 -0.707107
v -17.5 8.15 -6.38378e-16
vn -0 -0.707107 -0.707107
v -17.5 8.25 -0.1
vn -0 -0.707107 -0.707107
v 17.5 8.15 -6.38378e-16
vn 0 -0.707107 -0.707107
v -17.5 -5.35 -0.9
vn 0 -1 -1.11022e-15
v 17.5 -5.35 -0.9
vn 0 -1 -1.11022e-15
v 17.5 -5.35 -0.1
vn 0 -1 -1.11022e-15
v -17.5 -5.35 -0.1
vn 0 -1 -1.11022e-15
v 17.5 8.15 -6.38378e-16
vn -0 -2.31296e-16 -1
v -17.5 5.45 -1.38778e-17
vn -0 -2.31296e-16 -1
v -17.5 8.15 -6.38378e-16
vn -0 -2.31296e-16 -1
v 17.5 5.45 -1.38778e-17
vn 0 -2.31296e-16 -1
v 17.5 -5.25 -1
vn -0 -0.707107 -0.707107
v -17.5 -5.35 -0.9
vn -0 -0.707107 -0.707107
v -17.5 -5.25 -1
vn -0 -0.707107 -0.707107
v 17.5 -5.35 -0.9
vn 0 -0.707107 -0.707107
v 17.5 5.35 -0.1
vn 0 0.707107 -0.707107
v -17.5 5.35 -0.1
vn 0 0.707107 -0.707107
v -17.5 5.45 -1.38778e-17
vn 0 0.707107 -0.707107
v 17.5 5.45 -1.38778e-17
vn 0 0.707107 -0.707107
v -17.5 -4.95 -1
vn 0 0 -1
v 17.5 -4.95 -1
vn 0 0 -1
v 17.5 -5.25 -1
vn 0 0 -1
v -17.5 -5.25 -1
vn 0 0 -1
v -17.5 5.35 -0.1
vn 0 1 -1.11022e-15
v 17.5 5.35 -0.1
vn 0 1 -1.11022e-15
v 17.5 5.35 -0.9
vn 0 1 -1.11022e-15
v -17.5 5.35 -0.9
vn 0 1 -1.11022e-15
v 17.5 -4.95 -1
vn 0 0.707107 -0.707107
v -17.5 -4.95 -1
vn 0 0.707107 -0.707107
v -17.5 -4.85 -0.9
vn 0 0.707107 -0.707107
v 17.5 -4.85 -0.9
vn 0 0.707107 -0.707107
v 17.5 5.25 -1
vn 0 0.707107 -0.707107
v -17.5 5.25 -1
vn 0 0.707107 -0.707107
v -17.5 5.35 -0.9
vn 0 0.707107 -0.707107
v 17.5 5.35 -0.9
vn 0 0.707107 -0.707107
v -17.5 -4.85 -0.1
vn -0 1 1.11022e-15
v 17.5 -4.85 -0.1
vn -0 1 1.11022e-15
v 17.5 -4.85 -0.9
vn -0 1 1.11022e-15
v -17.5 -4.85 -0.9
vn -0 1 1.11022e-15
v -17.5 4.95 -1
vn 0 -1.11022e-15 -1
v -17.5 5.25 -1
vn 0 -1.11022e-15 -1
v 17.5 5.25 -1
vn 0 -1.11022e-15 -1
v 17.5 4.95 -1
vn 0 -1.11022e-15 -1
v 17.5 -4.85 -0.1
vn 0 0.707107 -0.707107
v -17.5 -4.85 -0.1
vn 0 0.707107 -0.707107
v -17.5 -4.75 -1.38778e-17
vn 0 0.707107 -0.707107
v 17.5 -4.75 -1.38778e-17
vn 0 0.707107 -0.707107
v 17.5 4.95 -1
vn -0 -0.707107 -0.707107
v -17.5 4.85 -0.9
vn -0 -0.707107 -0.707107
v -17.5 4.95 -1
vn -0 -0.707107 -0.707107
v 17.5 4.85 -0.9
vn 0 -0.707107 -0.707107
v 17.5 -4.75 -1.38778e-17
vn 0 1.79897e-17 -1
v -17.5 -4.75 -1.38778e-17
vn 0 1.79897e-17 -1
v -17.5 -2.05 3.46945e-17
vn 0 1.79897e-17 -1
v 17.5 -2.05 -6.93889e-18
vn -1.18952e-18 2.56996e-18 -1
v -17.5 4.85 -0.9
vn 0 -1 1.11022e-15
v 17.5 4.85 -0.9
vn 0 -1 1.11022e-15
v 17.5 4.85 -0.1
vn 0 -1 1.11022e-15
v -17.5 4.85 -0.1
vn 0 -1 1.11022e-15
v 17.5 -1.95 -0.1
vn -1.12149e-18 -0.707107 -0.707107
v -17.5 -2.05 3.46945e-17
vn -1.12149e-18 -0.707107 -0.707107
v -17.5 -1.95 -0.1
vn -1.12149e-18 -0.707107 -0.707107
v 17.5 -2.05 -6.93889e-18
vn -7.00934e-19 -0.707107 -0.707107
v 17.5 4.85 -0.1
vn -0 -0.707107 -0.707107
v -17.5 4.75 -3.26128e-16
vn -0 -0.707107 -0.707107
v -17.5 4.85 -0.1
vn -0 -0.707107 -0.707107
v 17.5 4.75 -3.26128e-16
vn 0 -0.707107 -0.707107
v -17.5 -1.95 -0.9
vn 0 -1 2.77556e-16
v 17.5 -1.95 -0.9
vn 0 -1 2.77556e-16
v 17.5 -1.95 -0.1
vn 0 -1 2.77556e-16
v -17.5 -1.95 -0.1
vn 4.40213e-34 -1 2.77556e-16
v 17.5 4.75 -3.26128e-16
vn -0 -7.45289e-17 -1
v -17.5 2.05 -1.249e-16
vn -0 -7.45289e-17 -1
v -17.5 4.75 -3.26128e-16
vn -0 -7.45289e-17 -1
v 17.5 2.05 -8.32667e-17
vn 1.18952e-18 -8.99486e-17 -1
v 17.5 -1.85 -1
vn -0 -0.707107 -0.707107
v -17.5 -1.95 -0.9
vn -0 -0.707107 -0.707107
v -17.5 -1.85 -1
vn -0 -0.707107 -0.707107
v 17.5 -1.95 -0.9
vn 0 -0.707107 -0.707107
v 17.5 1.95 -0.1
vn 8.41121e-19 0.707107 -0.707107
v -17.5 1.95 -0.1
vn 8.41121e-19 0.707107 -0.707107
v -17.5 2.05 -1.249e-16
vn 8.41121e-19 0.707107 -0.707107
v 17.5 2.05 -8.32667e-17
vn 7.00934e-19 0.707107 -0.707107
v -17.5 -1.85 -1
vn 0 3.70074e-16 -1
v -17.5 -1.55 -1
vn 0 3.70074e-16 -1
v 17.5 -1.55 -1
vn 0 3.70074e-16 -1
v 17.5 -1.85 -1
vn 0 3.70074e-16 -1
v -17.5 1.95 -0.9
vn 0 1 0
v -17.5 1.95 -0.1
vn 0 1 0
v 17.5 1.95 -0.1
vn 0 1 0
v 17.5 1.95 -0.9
vn 0 1 0
v 17.5 -1.55 -1
vn 0 0.707107 -0.707107
v -17.5 -1.55 -1
vn 0 0.707107 -0.707107
v -17.5 -1.45 -0.9
vn 0 0.707107 -0.707107
v 17.5 -1.45 -0.9
vn 0 0.707107 -0.707107
v 17.5 1.85 -1
vn 0 0.707107 -0.707107
v -17.5 1.85 -1
vn 0 0.707107 -0.707107
v -17.5 1.95 -0.9
vn 0 0.707107 -0.707107
v 17.5 1.95 -0.9
vn 0 0.707107 -0.707107
v -17.5 -1.45 -0.1
vn -0 1 0
v 17.5 -1.45 -0.1
vn -0 1 0
v 17.5 -1.45 -0.9
vn -0 1 0
v -17.5 -1.45 -0.9
vn 0 1 0
v -17.5 1.55 -1
vn 0 -7.40149e-16 -1
v -17.5 1.85 -1
vn 0 -7.40149e-16 -1
v 17.5 1.85 -1
vn 0 -7.40149e-16 -1
v 17.5 1.55 -1
vn 0 -7.40149e-16 -1
v 17.5 -1.45 -0.1
vn 5.60747e-19 0.707107 -0.707107
v -17.5 -1.45 -0.1
vn 5.60747e-19 0.707107 -0.707107
v -17.5 -1.35 3.46945e-17
vn 5.60747e-19 0.707107 -0.707107
v 17.5 -1.35 7.63278e-17
vn 1.0514e-18 0.707107 -0.707107
v 17.5 1.55 -1
vn -0 -0.707107 -0.707107
v -17.5 1.45 -0.9
vn -0 -0.707107 -0.707107
v -17.5 1.55 -1
vn -0 -0.707107 -0.707107
v 17.5 1.45 -0.9
vn 0 -0.707107 -0.707107
v 17.5 -1.35 7.63278e-17
vn 1.18952e-18 -2.82696e-17 -1
v -17.5 -1.35 3.46945e-17
vn 1.18952e-18 -2.82696e-17 -1
v -17.5 1.35 -4.16334e-17
vn 1.18952e-18 -2.82696e-17 -1
v 17.5 1.35 -8.32667e-17
vn -1.18952e-18 -5.91091e-17 -1
v -17.5 1.45 -0.9
vn 0 -1 0
v 17.5 1.45 -0.9
vn 0 -1 0
v 17.5 1.45 -0.1
vn 0 -1 0
v -17.5 1.45 -0.1
vn 0 -1 0
v 17.5 1.45 -0.1
vn -1.12149e-18 -0.707107 -0.707107
v -17.5 1.35 -4.16334e-17
vn -1.12149e-18 -0.707107 -0.707107
v -17.5 1.45 -0.1
vn -1.12149e-18 -0.707107 -0.707107
v 17.5 1.35 -8.32667e-17
vn -1.0514e-18 -0.707107 -0.707107
v 17.5 13.75 0.3
vn 1 0 0
v 17.5 13.65 1.38778e-17
vn 1 0 0
v 17.5 13.75 0.1
vn 1 0 0
v 17.5 11.65 -0.9
vn 1 0 0
v 17.5 11.75 -1
vn 1 0 0
v 17.5 12.05 -1
vn 1 0 0
v 17.5 12.15 -0.9
vn 1 -0 0
v 17.5 12.25 -1.38778e-17
vn 1 0 0
v 17.5 12.15 -0.1
vn 1 0 0
v 17.5 11.65 -0.1
vn 1 0 0
v 17.5 11.55 -1.38778e-17
vn 1 0 0
v 17.5 8.35 -1
vn 1 -0 0
v 17.5 8.65 -1
vn 1 -0 0
v 17.5 8.75 -0.9
vn 1 -0 0
v 17.5 8.25 -0.9
vn 1 -0 0
v 17.5 8.75 -0.1
vn 1 0 0
v 17.5 8.25 -0.1
vn 1 -0 0
v 17.5 8.15 -6.38378e-16
vn 1 -0 0
v 17.5 8.85 -6.38378e-16
vn 1 -0 0
v 17.5 4.85 -0.9
vn 1 0 0
v 17.5 4.95 -1
vn 1 0 0
v 17.5 5.25 -1
vn 1 0 0
v 17.5 5.35 -0.9
vn 1 -0 0
v 17.5 4.85 -0.1
vn 1 0 0
v 17.5 5.35 -0.1
vn 1 -0 0
v 17.5 4.75 -3.26128e-16
vn 1 0 0
v 17.5 5.45 -1.38778e-17
vn 1 -0 0
v 17.5 1.45 -0.9
vn 1 0 0
v 17.5 1.55 -1
vn 1 0 0
v 17.5 1.85 -1
vn 1 0 0
v 17.5 1.95 -0.9
vn 1 0 0
v 17.5 1.45 -0.1
vn 1 0 0
v 17.5 1.95 -0.1
vn 1 0 0
v 17.5 1.35 -8.32667e-17
vn 1 0 0
v 17.5 2.05 -8.32667e-17
vn 1 -0 0
v 17.5 -1.85 -1
vn 1 0 0
v 17.5 -1.55 -1
vn 1 0 0
v 17.5 -1.45 -0.9
vn 1 0 0
v 17.5 -1.95 -0.9
vn 1 -0 0
v 17.5 -1.95 -0.1
vn 1 -0 0
v 17.5 -1.45 -0.1
vn 1 -0 0
v 17.5 -2.05 -6.93889e-18
vn 1 -0 0
v 17.5 -1.35 7.63278e-17
vn 1 -0 0
v 17.5 -5.25 -1
vn 1 0 0
v 17.5 -4.95 -1
vn 1 0 0
v 17.5 -4.85 -0.9
vn 1 0 0
v 17.5 -5.35 -0.9
vn 1 0 0
v 17.5 -5.35 -0.1
vn 1 -0 0
v 17.5 -4.85 -0.1
vn 1 -0 0
v 17.5 -5.45 -1.38778e-17
vn 1 -0 0
v 17.5 -4.75 -1.38778e-17
vn 1 -0 0
v 17.5 -8.65 -1
vn 1 0 0
v 17.5 -8.35 -1
vn 1 0 0
v 17.5 -8.25 -0.9
vn 1 0 0
v 17.5 -8.75 -0.9
vn 1 -0 0
v 17.5 -8.75 -0.1
vn 1 -0 0
v 17.5 -8.25 -0.1
vn 1 -0 0
v 17.5 -8.15 -6.38378e-16
vn 1 0 0
v 17.5 -8.85 -6.38378e-16
vn 1 -0 0
v 17.5 -12.15 -0.9
vn 1 0 0
v 17.5 -12.05 -1
vn 1 0 0
v 17.5 -11.75 -1
vn 1 0 0
v 17.5 -11.65 -0.9
vn 1 0 0
v 17.5 -11.65 -0.1
vn 1 0 0
v 17.5 -12.15 -0.1
vn 1 0 0
v 17.5 -12.25 1.24206e-15
vn 1 0 0
v 17.5 -11.55 -1.38778e-17
vn 1 0 0
v 17.5 -13.75 0.3
vn 1 0 0
v 17.5 -13.75 0.1
vn 1 0 0
v 17.5 -13.65 1.38778e-17
vn 1 0 0
f 1//1 2//2 3//3
f 4//4 5//5 6//6
f 4//4 7//7 5//5
f 8//8 1//1 3//3
f 9//9 7//7 4//4
f 10//10 8//8 9//9
f 10//10 9//9 4//4
f 11//11 1//1 8//8
f 11//11 8//8 10//10
f 12//12 13//13 14//14
f 15//15 13//13 12//12
f 16//16 13//13 15//15
f 17//17 16//16 15//15
f 18//18 19//19 16//16
f 18//18 16//16 17//17
f 20//20 21//21 22//22
f 20//20 23//23 21//21
f 24//24 23//23 20//20
f 24//24 25//25 23//23
f 26//26 25//25 24//24
f 26//26 27//27 25//25
f 28//28 29//29 30//30
f 28//28 31//31 29//29
f 32//32 31//31 28//28
f 32//32 33//33 31//31
f 34//34 33//33 32//32
f 34//34 35//35 33//33
f 36//36 37//37 38//38
f 39//39 37//37 36//36
f 40//40 41//41 37//37
f 40//40 37//37 39//39
f 42//42 43//43 41//41
f 42//42 41//41 40//40
f 44//44 45//45 46//46
f 47//47 45//45 44//44
f 48//48 49//49 45//45
f 48//48 45//45 47//47
f 50//50 51//51 49//49
f 50//50 49//49 48//48
f 52//52 53//53 54//54
f 55//55 53//53 52//52
f 56//56 57//57 53//53
f 56//56 58//58 57//57
f 56//56 53//53 55//55
f 59//59 58//58 56//56
f 60//60 61//61 62//62
f 60//60 63//63 61//61
f 64//64 63//63 60//60
f 65//65 64//64 60//60
f 66//66 67//67 64//64
f 66//66 64//64 65//65
f 68//68 69//69 70//70
f 68//68 66//66 69//69
f 68//68 59//59 67//67
f 68//68 67//67 66//66
f 1//1 26//26 68//68
f 26//26 35//35 68//68
f 35//35 34//34 68//68
f 34//34 43//43 68//68
f 43//43 42//42 68//68
f 42//42 51//51 68//68
f 51//51 50//50 68//68
f 50//50 58//58 68//68
f 58//58 59//59 68//68
f 1//1 27//27 26//26
f 1//1 18//18 27//27
f 1//1 19//19 18//18
f 1//1 11//11 19//19
f 71//71 72//72 73//73
f 74//74 72//72 71//71
f 75//75 76//76 77//77
f 75//75 78//78 76//76
f 79//79 80//80 81//81
f 79//79 81//81 82//82
f 83//83 84//84 85//85
f 83//83 86//86 84//84
f 87//87 88//88 89//89
f 90//90 87//87 89//89
f 91//91 92//92 93//93
f 91//91 94//94 92//92
f 95//95 96//96 97//97
f 95//95 97//97 98//98
f 99//99 100//100 101//101
f 102//102 99//99 101//101
f 103//103 104//104 105//105
f 103//103 106//106 104//104
f 107//107 108//108 109//109
f 107//107 110//110 108//108
f 111//111 112//112 113//113
f 111//111 113//113 114//114
f 115//115 116//116 117//117
f 115//115 117//117 118//118
f 119//119 120//120 121//121
f 122//122 119//119 121//121
f 123//123 124//124 125//125
f 123//123 125//125 126//126
f 127//127 128//128 129//129
f 127//127 129//129 130//130
f 131//131 132//132 133//133
f 134//134 131//131 133//133
f 135//135 136//136 137//137
f 135//135 137//137 138//138
f 139//139 140//140 141//141
f 139//139 141//141 142//142
f 143//143 144//144 145//145
f 143//143 146//146 144//144
f 147//147 148//148 149//149
f 150//150 147//147 149//149
f 151//151 152//152 153//153
f 154//154 151//151 153//153
f 155//155 156//156 157//157
f 155//155 158//158 156//156
f 159//159 160//160 161//161
f 159//159 162//162 160//160
f 163//163 164//164 165//165
f 166//166 163//163 165//165
f 167//167 168//168 169//169
f 167//167 170//170 168//168
f 171//171 172//172 173//173
f 171//171 174//174 172//172
f 175//175 176//176 177//177
f 175//175 177//177 178//178
f 179//179 180//180 181//181
f 179//179 181//181 182//182
f 183//183 184//184 185//185
f 186//186 183//183 185//185
f 187//187 188//188 189//189
f 187//187 189//189 190//190
f 191//191 192//192 193//193
f 191//191 193//193 194//194
f 195//195 196//196 197//197
f 198//198 195//195 197//197
f 199//199 200//200 201//201
f 199//199 201//201 202//202
f 203//203 204//204 205//205
f 203//203 205//205 206//206
f 207//207 208//208 209//209
f 207//207 210//210 208//208
f 211//211 212//212 213//213
f 214//214 211//211 213//213
f 215//215 216//216 217//217
f 218//218 215//215 217//217
f 219//219 220//220 221//221
f 219//219 222//222 220//220
f 223//223 224//224 225//225
f 223//223 226//226 224//224
f 227//227 228//228 229//229
f 230//230 227//227 229//229
f 231//231 232//232 233//233
f 231//231 234//234 232//232
f 235//235 236//236 237//237
f 235//235 238//238 236//236
f 239//239 240//240 241//241
f 239//239 241//241 242//242
f 243//243 244//244 245//245
f 246//246 243//243 245//245
f 247//247 248//248 249//249
f 250//250 247//247 249//249
f 251//251 252//252 253//253
f 251//251 253//253 254//254
f 255//255 256//256 257//257
f 255//255 257//257 258//258
f 259//259 260//260 261//261
f 262//262 259//259 261//261
f 263//263 264//264 265//265
f 263//263 265//265 266//266
f 267//267 268//268 269//269
f 267//267 269//269 270//270
f 271//271 272//272 273//273
f 271//271 274//274 272//272
f 275//275 276//276 277//277
f 278//278 275//275 277//277
f 279//279 280//280 281//281
f 282//282 279//279 281//281
f 283//283 284//284 285//285
f 283//283 286//286 284//284
f 287//287 288//288 289//289
f 287//287 290//290 288//288
f 291//291 292//292 293//293
f 294//294 291//291 293//293
f 295//295 296//296 297//297
f 295//295 298//298 296//296
f 299//299 300//300 301//301
f 299//299 302//302 300//300
f 303//303 304//304 305//305
f 303//303 305//305 306//306
f 307//307 308//308 309//309
f 307//307 309//309 310//310
f 311//311 312//312 313//313
f 311//311 313//313 314//314
f 315//315 316//316 317//317
f 315//315 317//317 318//318
f 319//319 320//320 321//321
f 319//319 321//321 322//322
f 323//323 324//324 325//325
f 326//326 323//323 325//325
f 327//327 328//328 329//329
f 327//327 329//329 330//330
f 331//331 332//332 333//333
f 331//331 333//333 334//334
f 335//335 336//336 337//337
f 335//335 338//338 336//336
f 339//339 340//340 341//341
f 342//342 339//339 341//341
f 343//343 344//344 345//345
f 346//346 343//343 345//345
f 347//347 348//348 349//349
f 347//347 350//350 348//348
f 351//351 352//352 353//353
f 354//354 355//355 356//356
f 354//354 356//356 357//357
f 358//358 352//352 351//351
f 359//359 354//354 357//357
f 360//360 359//359 358//358
f 360//360 354//354 359//359
f 361//361 358//358 351//351
f 361//361 360//360 358//358
f 362//362 363//363 364//364
f 365//365 362//362 364//364
f 366//366 365//365 364//364
f 367//367 365//365 366//366
f 368//368 366//366 369//369
f 368//368 367//367 366//366
f 370//370 371//371 372//372
f 370//370 372//372 373//373
f 374//374 370//370 373//373
f 374//374 373//373 375//375
f 376//376 374//374 375//375
f 376//376 375//375 377//377
f 378//378 379//379 380//380
f 378//378 380//380 381//381
f 382//382 378//378 381//381
f 382//382 381//381 383//383
f 384//384 382//382 383//383
f 384//384 383//383 385//385
f 386//386 387//387 388//388
f 389//389 386//386 388//388
f 390//390 388//388 391//391
f 390//390 389//389 388//388
f 392//392 391//391 393//393
f 392//392 390//390 391//391
f 394//394 395//395 396//396
f 397//397 394//394 396//396
f 398//398 396//396 399//399
f 398//398 397//397 396//396
f 400//400 399//399 401//401
f 400//400 398//398 399//399
f 402//402 403//403 404//404
f 405//405 402//402 404//404
f 406//406 404//404 407//407
f 406//406 407//407 408//408
f 406//406 405//405 404//404
f 409//409 406//406 408//408
f 410//410 411//411 412//412
f 410//410 412//412 413//413
f 414//414 410//410 413//413
f 415//415 410//410 414//414
f 416//416 414//414 417//417
f 416//416 415//415 414//414
f 418//418 419//419 420//420
f 418//418 420//420 416//416
f 418//418 417//417 409//409
f 418//418 416//416 417//417
f 351//351 418//418 376//376
f 376//376 418//418 385//385
f 385//385 418//418 384//384
f 384//384 418//418 393//393
f 393//393 418//418 392//392
f 392//392 418//418 401//401
f 401//401 418//418 400//400
f 400//400 418//418 408//408
f 408//408 418//418 409//409
f 351//351 376//376 377//377
f 351//351 377//377 368//368
f 351//351 368//368 369//369
f 351//351 369//369 361//361
