# Created by Open3D 
# object name: piers
# number of vertices: 144
# number of triangles: 92
v 0.6 -13.75 -1.5
vn 0 -1 0
v -0.6 -13.75 -1
vn 0 -1 0
v -0.6 -13.75 -1.5
vn 0 -1 0
v 0.6 -13.75 -1
vn 0 -1 0
v 0.3 -11.3 -1.5
vn 0 -0 -1
v 0.6 -13.75 -1.5
vn 0 -0 -1
v -0.6 -13.75 -1.5
vn 0 -0 -1
v -0.3 -11.3 -1.5
vn -0 0 -1
v -0.3 -10.7 -1.5
vn 0 -0 -1
v 0.3 -10.7 -1.5
vn 0 0 -1
v 0.3 -5.8 -1.5
vn 0 -0 -1
v -0.3 -5.8 -1.5
vn -0 0 -1
v 0.3 -0.3 -1.5
vn 0 -0 -1
v 0.3 -5.2 -1.5
vn 0 -0 -1
v -0.3 -5.2 -1.5
vn 0 -0 -1
v -0.3 -0.3 -1.5
vn -0 0 -1
v 0.3 5.2 -1.5
vn 0 -0 -1
v 0.3 0.3 -1.5
vn 0 -0 -1
v -0.3 0.3 -1.5
vn 0 -0 -1
v -0.3 5.2 -1.5
vn -0 0 -1
v 0.3 10.7 -1.5
vn 0 -0 -1
v 0.3 5.8 -1.5
vn 0 -0 -1
v -0.3 5.8 -1.5
vn 0 -0 -1
v -0.3 10.7 -1.5
vn -0 0 -1
v -0.6 13.75 -1.5
vn 0 0 -1
v -0.3 11.3 -1.5
vn 0 0 -1
v 0.3 11.3 -1.5
vn 0 0 -1
v 0.6 13.75 -1.5
vn 0 0 -1
v 0.6 13.75 -1
vn 1 0 0
v 0.6 -13.75 -1
vn 1 0 0
v 0.6 -13.75 -1.5
vn 1 0 0
v 0.6 13.75 -1.5
vn 1 0 0
v 0.6 13.75 -1
vn 0 0 1
v -0.6 13.75 -1
vn 0 0 1
v -0.6 -13.75 -1
vn 0 0 1
v 0.6 -13.75 -1
vn 0 0 1
v -0.6 13.75 -1
vn -1 -0 0
v -0.6 -13.75 -1.5
vn -1 -0 0
v -0.6 -13.75 -1
vn -1 -0 0
v -0.6 13.75 -1.5
vn -1 0 -0
v 0.6 13.75 -1.5
vn 0 1 0
v -0.6 13.75 -1.5
vn 0 1 0
v -0.6 13.75 -1
vn 0 1 0
v 0.6 13.75 -1
vn 0 1 -0
v 0.3 -11.3 -1.5
vn -0 -1 0
v -0.3 -11.3 -1.5
vn -0 -1 0
v -0.3 -11.3 -6.5
vn -0 -1 0
v 0.3 -11.3 -6.5
vn 0 -1 -0
v 0.3 -10.7 -1.5
vn 1 0 0
v 0.3 -11.3 -1.5
vn 1 0 0
v 0.3 -11.3 -6.5
vn 1 0 0
v 0.3 -10.7 -6.5
vn 1 0 0
v -0.3 -10.7 -1.5
vn -0 1 0
v 0.3 -10.7 -1.5
vn -0 1 0
v 0.3 -10.7 -6.5
vn -0 1 0
v -0.3 -10.7 -6.5
vn 0 1 0
v -0.3 -11.3 -1.5
vn -1 0 0
v -0.3 -10.7 -1.5
vn -1 0 0
v -0.3 -10.7 -6.5
vn -1 0 0
v -0.3 -11.3 -6.5
vn -1 0 0
v 0.3 -5.8 -1.5
vn -0 -1 0
v -0.3 -5.8 -1.5
vn -0 -1 0
v -0.3 -5.8 -6.5
vn -0 -1 0
v 0.3 -5.8 -6.5
vn 0 -1 -0
v 0.3 -5.2 -1.5
vn 1 0 0
v 0.3 -5.8 -1.5
vn 1 0 0
v 0.3 -5.8 -6.5
vn 1 0 0
v 0.3 -5.2 -6.5
vn 1 0 0
v -0.3 -5.2 -1.5
vn -0 1 0
v 0.3 -5.2 -1.5
vn -0 1 0
v 0.3 -5.2 -6.5
vn -0 1 0
v -0.3 -5.2 -6.5
vn 0 1 0
v -0.3 -5.8 -1.5
vn -1 0 0
v -0.3 -5.2 -1.5
vn -1 0 0
v -0.3 -5.2 -6.5
vn -1 0 0
v -0.3 -5.8 -6.5
vn -1 0 0
v 0.3 -0.3 -1.5
vn -0 -1 0
v -0.3 -0.3 -1.5
vn -0 -1 0
v -0.3 -0.3 -6.5
vn -0 -1 0
v 0.3 -0.3 -6.5
vn 0 -1 -0
v 0.3 0.3 -1.5
vn 1 0 0
v 0.3 -0.3 -1.5
vn 1 0 0
v 0.3 -0.3 -6.5
vn 1 0 0
v 0.3 0.3 -6.5
vn 1 0 0
v -0.3 0.3 -1.5
vn -0 1 0
v 0.3 0.3 -1.5
vn -0 1 0
v 0.3 0.3 -6.5
vn -0 1 0
v -0.3 0.3 -6.5
vn 0 1 0
v -0.3 -0.3 -1.5
vn -1 0 0
v -0.3 0.3 -1.5
vn -1 0 0
v -0.3 0.3 -6.5
vn -1 0 0
v -0.3 -0.3 -6.5
vn -1 0 0
v 0.3 5.2 -1.5
vn -0 -1 0
v -0.3 5.2 -1.5
vn -0 -1 0
v -0.3 5.2 -6.5
vn -0 -1 0
v 0.3 5.2 -6.5
vn 0 -1 -0
v 0.3 5.8 -1.5
vn 1 0 0
v 0.3 5.2 -1.5
vn 1 0 0
v 0.3 5.2 -6.5
vn 1 0 0
v 0.3 5.8 -6.5
vn 1 0 0
v -0.3 5.8 -1.5
vn -0 1 0
v 0.3 5.8 -1.5
vn -0 1 0
v 0.3 5.8 -6.5
vn -0 1 0
v -0.3 5.8 -6.5
vn 0 1 0
v -0.3 5.2 -1.5
vn -1 0 0
v -0.3 5.8 -1.5
vn -1 0 0
v -0.3 5.8 -6.5
vn -1 0 0
v -0.3 5.2 -6.5
vn -1 0 0
v 0.3 10.7 -1.5
vn -0 -1 0
v -0.3 10.7 -1.5
vn -0 -1 0
v -0.3 10.7 -6.5
vn -0 -1 0
v 0.3 10.7 -6.5
vn 0 -1 -0
v 0.3 11.3 -1.5
vn 1 0 0
v 0.3 10.7 -1.5
vn 1 0 0
v 0.3 10.7 -6.5
vn 1 0 0
v 0.3 11.3 -6.5
vn 1 0 0
v -0.3 11.3 -1.5
vn -0 1 0
v 0.3 11.3 -1.5
vn -0 1 0
v 0.3 11.3 -6.5
vn -0 1 0
v -0.3 11.3 -6.5
vn 0 1 0
v -0.3 10.7 -1.5
vn -1 0 0
v -0.3 11.3 -1.5
vn -1 0 0
v -0.3 11.3 -6.5
vn -1 0 0
v -0.3 10.7 -6.5
vn -1 0 0
v 0.3 -10.7 -6.5
vn 0 -0 -1
v 0.3 -11.3 -6.5
vn 0 -0 -1
v -0.3 -11.3 -6.5
vn 0 -0 -1
v -0.3 -10.7 -6.5
vn -0 0 -1
v 0.3 -5.2 -6.5
vn 0 -0 -1
v 0.3 -5.8 -6.5
vn 0 -0 -1
v -0.3 -5.8 -6.5
vn 0 -0 -1
v -0.3 -5.2 -6.5
vn -0 0 -1
v 0.3 0.3 -6.5
vn 0 -0 -1
v 0.3 -0.3 -6.5
vn 0 -0 -1
v -0.3 -0.3 -6.5
vn 0 -0 -1
v -0.3 0.3 -6.5
vn -0 0 -1
v 0.3 5.8 -6.5
vn 0 -0 -1
v 0.3 5.2 -6.5
vn 0 -0 -1
v -0.3 5.2 -6.5
vn 0 -0 -1
v -0.3 5.8 -6.5
vn -0 0 -1
v 0.3 11.3 -6.5
vn 0 -0 -1
v 0.3 10.7 -6.5
vn 0 -0 -1
v -0.3 10.7 -6.5
vn 0 -0 -1
v -0.3 11.3 -6.5
vn -0 0 -1
f 1//1 2//2 3//3
f 1//1 4//4 2//2
f 5//5 6//6 7//7
f 5//5 7//7 8//8
f 9//9 8//8 7//7
f 10//10 6//6 5//5
f 11//11 10//10 9//9
f 11//11 9//9 12//12
f 13//13 14//14 15//15
f 13//13 15//15 16//16
f 17//17 18//18 19//19
f 17//17 19//19 20//20
f 21//21 22//22 23//23
f 21//21 23//23 24//24
f 25//25 26//26 24//24
f 25//25 27//27 26//26
f 28//28 21//21 27//27
f 28//28 27//27 25//25
f 25//25 9//9 7//7
f 25//25 12//12 9//9
f 25//25 15//15 12//12
f 25//25 16//16 15//15
f 25//25 19//19 16//16
f 25//25 20//20 19//19
f 25//25 23//23 20//20
f 25//25 24//24 23//23
f 6//6 21//21 28//28
f 6//6 22//22 21//21
f 6//6 17//17 22//22
f 6//6 18//18 17//17
f 6//6 13//13 18//18
f 6//6 14//14 13//13
f 6//6 11//11 14//14
f 6//6 10//10 11//11
f 29//29 30//30 31//31
f 29//29 31//31 32//32
f 33//33 34//34 35//35
f 33//33 35//35 36//36
f 37//37 38//38 39//39
f 37//37 40//40 38//38
f 41//41 42//42 43//43
f 41//41 43//43 44//44
f 45//45 46//46 47//47
f 45//45 47//47 48//48
f 49//49 50//50 51//51
f 49//49 51//51 52//52
f 53//53 54//54 55//55
f 53//53 55//55 56//56
f 57//57 58//58 59//59
f 57//57 59//59 60//60
f 61//61 62//62 63//63
f 61//61 63//63 64//64
f 65//65 66//66 67//67
f 65//65 67//67 68//68
f 69//69 70//70 71//71
f 69//69 71//71 72//72
f 73//73 74//74 75//75
f 73//73 75//75 76//76
f 77//77 78//78 79//79
f 77//77 79//79 80//80
f 81//81 82//82 83//83
f 81//81 83//83 84//84
f 85//85 86//86 87//87
f 85//85 87//87 88//88
f 89//89 90//90 91//91
f 89//89 91//91 92//92
f 93//93 94//94 95//95
f 93//93 95//95 96//96
f 97//97 98//98 99//99
f 97//97 99//99 100//100
f 101//101 102//102 103//103
f 101//101 103//103 104//104
f 105//105 106//106 107//107
f 105//105 107//107 108//108
f 109//109 110//110 111//111
f 109//109 111//111 112//112
f 113//113 114//114 115//115
f 113//113 115//115 116//116
f 117//117 118//118 119//119
f 117//117 119//119 120//120
f 121//121 122//122 123//123
f 121//121 123//123 124//124
f 125//125 126//126 127//127
f 125//125 127//127 128//128
f 129//129 130//130 131//131
f 129//129 131//131 132//132
f 133//133 134//134 135//135
f 133//133 135//135 136//136
f 137//137 138//138 139//139
f 137//137 139//139 140//140
f 141//141 142//142 143//143
f 141//141 143//143 144//144
